<?xml version="1.0" encoding="UTF-8"?>
<svg id="b" data-name="Layer 2" xmlns="http://www.w3.org/2000/svg" width="300.07" height="426.6" viewBox="0 0 300.07 426.6">
  <defs>
    <style>
      .d {
        fill: #d47249;
      }

      .d, .e, .f, .g, .h, .i, .j, .k, .l, .m, .n, .o, .p {
        stroke-width: 0px;
      }

      .e {
        fill: #82a55b;
      }

      .f {
        fill: #9c9c9c;
      }

      .g {
        fill: #57901b;
      }

      .h {
        fill: #78b03c;
      }

      .i {
        fill: #464443;
      }

      .j {
        fill: #3d3d3d;
      }

      .k {
        fill: #4a7a16;
      }

      .l {
        fill: #d47248;
      }

      .m {
        fill: #3e3e3e;
      }

      .n {
        fill: #f09f7e;
      }

      .o {
        fill: #f19f7e;
      }

      .p {
        fill: #fcfcfc;
      }
    </style>
  </defs>
  <g id="c" data-name="Layer 1">
    <g>
      <path class="h" d="m55.21,426.6c2-6.47,3.95-12.96,6.02-19.41,4.32-13.49,8.6-26.98,13.08-40.42,4.56-13.69,12.88-24.66,24.84-32.72,2.29-1.54,3.06-3.17,3.02-5.83-.14-10.18-.06-20.36-.07-30.54,20.58-.03,41.16-.07,61.74-.07,10.79,0,21.58.07,32.37.1.65,1.19.56,2.5.56,3.79,0,8.95,0,17.9.01,26.84,0,1.16-.3,2.41.62,3.42.19.04.38.06.57.07.25.18.5.36.75.54.35.21.71.41,1.06.62,10.85,7.19,18.95,16.73,24.11,28.68,3.05,7.06,4.93,14.55,7.32,21.85,4.41,13.47,8.72,26.96,13.05,40.45.27.84.35,1.74.52,2.62h-37.19c.32-6.07-.46-12.17.46-18.22.28-1.86-.84-2.17-2.34-2.16-7.58.04-15.16.06-22.75.09-4.37,0-8.74.01-13.12.02-13.23,0-26.46.01-39.69.02-4.37-.02-8.74-.03-13.11-.05-7.08-.02-14.17.02-21.25-.11-2.33-.04-2.87.96-2.83,3.05.1,5.79.04,11.57.05,17.36h-37.79Z"/>
      <path class="g" d="m130.14,406.34c13.23,0,26.46-.01,39.69-.02-.02,6.76-.03,13.52-.05,20.28h-39.59c-.02-6.75-.04-13.51-.05-20.26Z"/>
      <path class="g" d="m182.95,406.3c7.58-.03,15.16-.04,22.75-.09,1.5,0,2.63.3,2.34,2.16-.92,6.05-.14,12.15-.46,18.22h-23.99c0-2.3.08-4.6-.03-6.89-.21-4.47.64-8.99-.61-13.41Z"/>
      <path class="g" d="m93.01,426.6c0-5.79.05-11.58-.05-17.36-.04-2.09.5-3.1,2.83-3.05,7.08.13,14.17.09,21.25.11-.01,6.77-.02,13.54-.04,20.31h-23.99Z"/>
      <path class="k" d="m182.95,406.3c1.25,4.42.4,8.94.61,13.41.11,2.29.02,4.59.03,6.89h-13.8c.02-6.76.03-13.52.05-20.28,4.37,0,8.75-.01,13.12-.02Z"/>
      <path class="k" d="m117,426.6c.01-6.77.02-13.54.04-20.31,4.37.02,8.74.03,13.11.05.02,6.75.04,13.51.05,20.26h-13.2Z"/>
      <path class="o" d="m196.21,297.71c-10.79-.04-21.58-.1-32.37-.1-20.58,0-41.16.04-61.74.07-6.19-.03-12.38-.06-18.57-.08-26.11-.09-46.32-17.31-50.31-43.01-.49-3.14-.51-6.37-.53-9.56-.05-13.48-.05-26.96,0-40.45,0-2.21-.17-3.06-2.94-2.55-17.36,3.17-31.77-10.27-29.54-27.7,1.28-9.98,7.39-16.48,16.6-20.19,3.38-.96,6.82-1.34,10.33-.98,4.67.47,4.65.48,4.67,5.15.02,2.69-.9,6.19.44,7.84,1.57,1.95,5.23.42,7.97.68-.44,1.21-.91,2.4-1.3,3.62-1.94,6.1,2.09,12.45,8.42,13.25,1.58.2,3.2.35,4.78.24,2.23-.16,3.32.49,3.92,2.89,2.38,9.51,7.55,17.45,15.17,23.47,25.35,20.04,61.53,9.26,71.96-21.29,1.59-4.66,5.54-7.36,10.38-7.11,5.06.26,8.19,2.73,9.76,7.57,1.02,3.13,2.36,6.12,4.16,8.92,10.28,16.02,25,23.69,43.84,21.69,18.2-1.93,31.08-12,37.51-29.2,1.83-4.9,3.44-7.23,9.09-7.33,7.67-.14,11.7-7.7,8.47-14.71-.91-1.97-.38-2.38,1.35-2.19,2.45.27,3.09-.8,2.98-3.09-.16-3.29-.03-6.59-.03-9.89,4.39-1.23,8.67-.2,12.96.64,5.8,2.73,10.59,6.43,13.78,12.27,5.07,9.31,2.57,23.34-5.7,30.03-5.7,4.61-12.12,6.82-19.45,5.79-2.36-.33-2.64.71-2.63,2.64.05,13.48.02,26.97.03,40.45,0,8.49-1.21,16.74-5.18,24.36-8.85,16.97-22.92,26.27-41.97,27.58-8.15.56-16.37.21-24.56.28-.18-.08-.36-.09-.55-.02-.41,0-.81.02-1.22.02Zm-43.44-67.88c7.55.59,15.48-8.45,11.54-17.12-2.75-6.04-6.26-11.56-10.05-16.94-.87-1.24-1.59-1.32-2.5-.05-4.13,5.76-8.26,11.55-10.56,18.34-2.53,7.49,3.64,15.79,11.58,15.78Zm-10.11,19.8c1.71-.25,4.32-.39,6.8-1.04,2.46-.64,3.92-2.37,3.34-5.16-.58-2.81-2.58-4.27-5.46-3.88-12.8,1.74-23.34-2.06-31.29-12.51-2.26-2.96-6.53-2.42-7.79.9-.7,1.86-.34,3.68.86,5.37,8,11.24,19.35,15.71,33.53,16.32Z"/>
      <path class="j" d="m283.67,154.31c-4.29-.84-8.57-1.86-12.96-.64-1.53,2.72-.39,5.66-.72,8.48-.12,1.07.29,2.5-.84,3-1.96.86-4.1.87-6.06-.16-1.69-.89-3.44-1.45-3.4-4.19.19-11.68.08-23.37.08-35.06,0-2-.03-3.99-1.38-5.67l-.07-.14.12-.1c.14-1.27.3-2.55-1.03-3.38-.06-.27-.12-.54-.19-.81.17-1.16.08-2.21-1.2-2.75-8.74-16.75-25.47-21.18-40.35-17.1-8.86,2.43-17.69,4.95-26.74,6.61-12.69,2.33-25.45,4.55-38.36,4.21-21.47-.56-42.46-4.51-63.05-10.6-23.64-7-44.9,9.12-44.27,32.65.32,11.88.02,23.79,0,35.68-1.03.8-1.69,2.06-3.02,2.49-2.74-.26-6.4,1.27-7.97-.68-1.34-1.66-.42-5.16-.44-7.84-.03-4.67,0-4.68-4.67-5.15-3.5-.35-6.94.02-10.33.98-5.99-17.84-2.71-34.37,7.8-49.46,7.95-11.41,12.37-23.98,15.06-37.45,2.09-10.48,6.66-19.85,14.46-27.41,7.02-6.8,15.13-11.36,24.82-13.63,8.88-2.08,18.06-3.54,26.33-7.68,4.68-2.34,9.18-5.13,13.53-8.06,6.53-4.38,13.41-7.59,21.18-9.28,15.83-3.45,29.66.92,42.71,9.6,8.83,5.87,18.03,10.87,28.74,12.87,8.99,1.67,17.98,3.78,25.97,8.69,12.16,7.46,20.22,18.04,23.44,31.9,2.33,10.04,4.78,20.02,9.11,29.36,2.4,5.18,6.08,9.75,8.93,14.74,5.15,9.02,8.9,18.57,8.37,29.17-.28,5.73-.75,11.56-3.62,16.8Z"/>
      <path class="i" d="m197.44,297.69c.19-.06.37-.06.55.02,0,11.38,0,22.75-.01,34.13-.19,0-.38-.03-.57-.07.01-11.36.02-22.72.04-34.08Z"/>
      <path class="i" d="m199.78,333c-.36-.21-.71-.41-1.06-.62.36.21.71.41,1.06.62Z"/>
      <path class="e" d="m197.44,297.69c-.01,11.36-.02,22.72-.04,34.08-.91-1.01-.61-2.26-.62-3.42-.02-8.95-.01-17.9-.01-26.84,0-1.29.1-2.6-.56-3.79.41,0,.81-.02,1.22-.02Z"/>
      <path class="i" d="m258.38,120.07c1.35,1.67,1.37,3.67,1.38,5.67,0,11.69.11,23.38-.08,35.06-.05,2.75,1.71,3.31,3.4,4.19,1.96,1.03,4.1,1.02,6.06.16,1.14-.5.72-1.93.84-3,.33-2.82-.81-5.77.72-8.48,0,3.3-.13,6.6.03,9.89.11,2.29-.53,3.36-2.98,3.09-1.73-.19-2.26.22-1.35,2.19,3.23,7.01-.8,14.58-8.47,14.71-5.65.1-7.26,2.44-9.09,7.33-6.43,17.2-19.31,27.27-37.51,29.2-18.85,2-33.56-5.67-43.84-21.69-1.8-2.8-3.14-5.79-4.16-8.92-1.57-4.83-4.7-7.31-9.76-7.57-4.84-.25-8.79,2.45-10.38,7.11-10.44,30.55-46.61,41.34-71.96,21.29-7.62-6.03-12.8-13.97-15.17-23.47-.6-2.4-1.68-3.04-3.92-2.89-1.58.11-3.2-.04-4.78-.24-6.34-.8-10.36-7.15-8.42-13.25.39-1.22.87-2.42,1.3-3.62,1.33-.44,1.99-1.69,3.02-2.49,3.32-1.43,6.83-1.28,10.32-1.17,1.63.05,2.64-.41,3.06-2.09.64-2.64,1.97-5.01,3.21-7.39,13.59-25.99,48.75-32.63,71.17-11.81,6.82,6.34,11.34,14.12,13.19,23.3.44,2.22,1.44,2.91,3.63,2.8,3.49-.17,7-.24,10.48.02,2.6.19,3.36-.9,3.9-3.22,4.77-20.54,22.52-34.81,43.59-35.19,18.89-.34,35.87,11,42.74,28.55,2.07,5.29,2.07,5.22,8.5,5.05,1.64-.04,2.05-.6,2.01-2.09-.34-13.67.7-27.37-.68-41.02Zm-121.29,55.02c-.02-20.65-16.49-37.22-37.11-37.36-20.57-.13-37.3,16.68-37.28,37.48.02,20.52,16.67,37.03,37.41,37.11,20.21.08,37-16.82,36.98-37.23Zm106.57,0c.12-20.34-16.43-37.12-36.84-37.35-20.49-.23-37.43,16.39-37.64,36.91-.21,20.67,16.67,37.65,37.47,37.68,20.21.03,36.9-16.76,37.02-37.24Zm17.88-1.42c.06-2.47-1.86-4.4-4.33-4.37-2.36.03-4.1,1.81-4.12,4.23-.03,2.5,1.84,4.42,4.28,4.39,2.23-.02,4.12-1.94,4.17-4.25Zm-207.13.03c.07-2.29-1.74-4.28-3.99-4.4-2.35-.12-4.48,1.87-4.5,4.21-.01,2.33,1.75,4.28,4,4.4,2.4.13,4.41-1.75,4.49-4.21Z"/>
      <path class="l" d="m152.77,229.82c-7.94.01-14.11-8.29-11.58-15.78,2.3-6.79,6.43-12.57,10.56-18.34.91-1.27,1.63-1.19,2.5.05,3.79,5.39,7.3,10.9,10.05,16.94,3.95,8.67-3.99,17.71-11.54,17.12Z"/>
      <path class="d" d="m142.66,249.62c-14.18-.61-25.53-5.09-33.53-16.32-1.2-1.69-1.57-3.51-.86-5.37,1.26-3.32,5.53-3.86,7.79-.9,7.95,10.45,18.49,14.25,31.29,12.51,2.88-.39,4.88,1.07,5.46,3.88.58,2.79-.88,4.52-3.34,5.16-2.48.65-5.09.79-6.8,1.04Z"/>
      <path class="n" d="m258.38,120.07c1.38,13.66.33,27.35.68,41.02.04,1.49-.37,2.05-2.01,2.09-6.43.17-6.43.24-8.5-5.05-6.87-17.55-23.85-28.89-42.74-28.55-21.07.38-38.82,14.65-43.59,35.19-.54,2.32-1.3,3.41-3.9,3.22-3.48-.26-6.99-.19-10.48-.02-2.19.11-3.19-.59-3.63-2.8-1.84-9.19-6.37-16.97-13.19-23.3-22.42-20.83-57.58-14.19-71.17,11.81-1.25,2.39-2.57,4.75-3.21,7.39-.41,1.68-1.42,2.14-3.06,2.09-3.48-.11-7-.26-10.32,1.17.02-11.89.31-23.79,0-35.68-.62-23.53,20.63-39.65,44.27-32.65,20.58,6.1,41.57,10.04,63.05,10.6,12.91.34,25.67-1.88,38.36-4.21,9.05-1.66,17.88-4.18,26.74-6.61,14.88-4.08,31.61.36,40.35,17.1.23.99.51,1.96,1.2,2.75.06.27.12.54.19.81.14,1.19.32,2.36,1.03,3.38l-.12.1.07.14Z"/>
      <path class="i" d="m258.43,119.83c-.71-1.02-.89-2.19-1.03-3.38,1.33.83,1.16,2.11,1.03,3.38Z"/>
      <path class="i" d="m257.22,115.64c-.69-.79-.96-1.76-1.2-2.75,1.28.53,1.36,1.59,1.2,2.75Z"/>
      <path class="p" d="m137.1,175.1c.02,20.41-16.77,37.31-36.98,37.23-20.75-.08-37.39-16.59-37.41-37.11-.02-20.8,16.7-37.62,37.28-37.48,20.63.13,37.09,16.71,37.11,37.36Zm-8.71-1.75c0-3.07.07-5.57-.01-8.07-.34-10.13-8.78-17.55-18.63-16.6-2.57.25-2.95.69-1.59,3.03,4.66,8.01-.26,17.76-9.35,18.85q-4.29.51-4.3,4.9c0,1.2-.05,2.4.01,3.6.53,10.2,6.79,16.91,16.36,17.54,8.13.54,15.46-5.36,17.22-13.95.66-3.25.16-6.57.29-9.29Z"/>
      <path class="p" d="m243.67,175.09c-.12,20.49-16.8,37.27-37.02,37.24-20.79-.03-37.68-17.02-37.47-37.68.21-20.52,17.15-37.13,37.64-36.91,20.41.23,36.96,17,36.84,37.35Zm-32.63-2.24c0-3.3.33-6.63-.06-9.88-1.12-9.31-9.81-15.72-19.02-14.33-1.5.23-2.46.15-1.2,2.2,5.96,9.73-1.84,20.53-11.26,19.67-1.61-.15-2.12.28-2.03,1.9.14,2.79,0,5.6.15,8.39.39,7.59,6.64,14.51,13.84,15.43,8.77,1.13,16.12-3.37,18.81-11.22,1.38-4.02.8-8.09.78-12.15Z"/>
      <path class="f" d="m261.55,173.66c-.05,2.31-1.94,4.23-4.17,4.25-2.44.03-4.3-1.89-4.28-4.39.03-2.43,1.76-4.2,4.12-4.23,2.47-.03,4.39,1.9,4.33,4.37Z"/>
      <path class="f" d="m54.42,173.7c-.07,2.45-2.08,4.34-4.49,4.21-2.25-.13-4.01-2.07-4-4.4.01-2.33,2.15-4.33,4.5-4.21,2.25.12,4.05,2.11,3.99,4.4Z"/>
      <path class="m" d="m128.39,173.35c-.13,2.71.37,6.04-.29,9.29-1.75,8.59-9.09,14.49-17.22,13.95-9.57-.63-15.83-7.33-16.36-17.54-.06-1.2-.01-2.4-.01-3.6q.01-4.38,4.3-4.9c9.09-1.09,14.01-10.83,9.35-18.85-1.36-2.35-.98-2.79,1.59-3.03,9.84-.94,18.29,6.47,18.63,16.6.08,2.49.01,4.99.01,8.07Z"/>
      <path class="j" d="m211.04,172.85c.02,4.06.6,8.13-.78,12.15-2.7,7.85-10.04,12.35-18.81,11.22-7.2-.92-13.45-7.85-13.84-15.43-.14-2.79,0-5.6-.15-8.39-.08-1.61.43-2.04,2.03-1.9,9.42.86,17.23-9.94,11.26-19.67-1.25-2.04-.29-1.97,1.2-2.2,9.21-1.39,17.9,5.02,19.02,14.33.39,3.25.06,6.58.06,9.88Z"/>
    </g>
  </g>
</svg>