<?xml version="1.0" encoding="UTF-8"?>
<svg id="b" data-name="Layer 2" xmlns="http://www.w3.org/2000/svg" width="765.89" height="468.94" viewBox="0 0 765.89 468.94">
  <defs>
    <style>
      .d, .e {
        stroke-width: 0px;
      }

      .e {
        fill: #fff;
      }
    </style>
  </defs>
  <g id="c" data-name="Layer 1">
    <g>
      <path class="d" d="m383.68,116.33c11.75-11.69,23.1-22.93,34.4-34.23,20.38-20.38,40.22-41.34,61.2-61.07,30.93-29.09,79.71-27.73,109.72,2.32,47.69,47.74,95.28,95.59,142.9,143.42,11.05,11.09,22.13,22.05,28.16,37.1,12.04,30.06,5.06,64.9-17.76,87.77-50.72,50.83-101.33,101.76-151.99,152.65-32.7,32.85-82.29,32.91-115.27-.06-28.87-28.86-57.56-57.9-86.27-86.92-1.62-1.64-2.7-3.83-4.36-6.24-2.98,2.83-4.65,4.35-6.25,5.95-29.11,29.1-58.2,58.22-87.32,87.31-31.73,31.7-82.3,31.66-113.99-.05-50.78-50.79-101.53-101.61-152.37-152.34C7.8,275.29-.56,255.27.03,231.79c.52-20.42,7.69-38.52,22.15-53.06C73.65,126.98,125.28,75.39,176.97,23.86c32.41-32.31,81.96-31.69,115.41,1.45,29.12,28.85,58,57.93,86.99,86.91,1.28,1.28,2.62,2.5,4.31,4.11Zm61.32,118.07c-.31-15.99-5.89-29.86-17.25-41.23-51.1-51.15-102.12-102.39-153.43-153.33-23.15-22.99-58.47-22.35-81.52.77-16.23,16.28-32.5,32.53-48.76,48.79-34.99,34.99-70.03,69.95-104.97,104.99-11.29,11.32-16.49,25.34-16.15,41.11.35,16.21,7.18,29.63,18.73,41.12,50.45,50.17,100.66,100.58,151,150.87,23.54,23.52,58.7,23.8,82.25.35,51.23-51.02,102.31-102.19,153.38-153.37,10.97-11,16.21-24.54,16.71-40.07Zm242.1,23.75c15.53.15,28.34-12.56,28.36-28.13.01-15.17-12.76-27.83-28.15-27.91-14.84-.07-27.74,12.76-27.85,27.7-.12,15.32,12.44,28.19,27.65,28.33Zm-149.47,0c15.23,0,28.06-12.76,28.14-27.99.08-14.96-12.97-27.96-28.16-28.05-14.93-.09-28.19,13.13-28.14,28.07.05,15.2,12.91,27.97,28.16,27.97Zm26.26,129.85c.06-15.12-12.97-28.3-27.91-28.25-15.09.05-28.12,13.05-28.16,28.09-.03,15.09,12.93,28.14,27.98,28.18,15.16.04,28.02-12.8,28.08-28.02Zm-28.12-335.46c-15.59.06-28.17,12.62-27.9,27.86.28,15.53,12.79,27.91,28.12,27.81,15.4-.1,27.93-12.69,27.9-28.03-.03-15.38-12.57-27.69-28.12-27.63Z"/>
      <path class="e" d="m445,234.4c-.5,15.53-5.74,29.08-16.71,40.07-51.07,51.18-102.15,102.35-153.38,153.37-23.55,23.46-58.71,23.17-82.25-.35-50.33-50.29-100.55-100.7-151-150.87-11.55-11.49-18.38-24.92-18.73-41.12-.34-15.77,4.86-29.79,16.15-41.11,34.94-35.04,69.97-70,104.97-104.99,16.26-16.26,32.53-32.5,48.76-48.79,23.05-23.12,58.36-23.76,81.52-.77,51.31,50.94,102.33,102.18,153.43,153.33,11.36,11.37,16.95,25.24,17.25,41.23Zm-57.27,23.14c15.06.02,27.39-12.15,27.48-27.13.1-15.34-12.04-27.51-27.52-27.6-14.92-.09-27.47,12.25-27.59,27.14-.12,15.13,12.33,27.57,27.63,27.59ZM230.14,53.15c-15.4-.03-27.25,11.66-27.32,26.95-.07,15.24,11.86,27.42,26.93,27.48,15.03.06,27.38-12.09,27.53-27.09.16-14.95-12.11-27.3-27.14-27.34ZM60.83,230.15c-.02,15.06,12.11,27.32,27.11,27.38,14.77.07,27.34-12.5,27.33-27.34,0-15.13-12.07-27.12-27.3-27.14-15.34-.02-27.12,11.74-27.14,27.09Zm195.61.46c.08-15.61-11.33-27.43-26.58-27.54-15.4-.11-27.91,12.12-27.83,27.21.09,14.8,12.72,27.31,27.51,27.26,14.87-.05,26.82-12.02,26.9-26.93Zm-53.64,157.39c.03,15.36,11.86,27.07,27.23,26.97,15.35-.1,27.29-11.99,27.25-27.13-.05-15.11-12.22-27.12-27.4-27.03-15.36.09-27.11,11.89-27.08,27.19Z"/>
      <path class="e" d="m687.11,258.15c-15.21-.15-27.76-13.01-27.65-28.33.11-14.95,13.01-27.77,27.85-27.7,15.39.07,28.16,12.74,28.15,27.91-.01,15.57-12.83,28.28-28.36,28.13Z"/>
      <path class="e" d="m537.64,258.16c-15.25,0-28.11-12.77-28.16-27.97-.05-14.93,13.21-28.16,28.14-28.07,15.19.1,28.24,13.09,28.16,28.05-.08,15.22-12.91,27.98-28.14,27.99Z"/>
      <path class="e" d="m563.9,388.01c-.06,15.22-12.93,28.06-28.08,28.02-15.06-.04-28.02-13.09-27.98-28.18.03-15.04,13.06-28.03,28.16-28.09,14.94-.05,27.97,13.13,27.91,28.25Z"/>
      <path class="e" d="m535.77,52.55c15.56-.06,28.09,12.25,28.12,27.63.03,15.34-12.49,27.93-27.9,28.03-15.33.1-27.85-12.28-28.12-27.81-.27-15.24,12.3-27.79,27.9-27.86Z"/>
      <path class="d" d="m387.74,257.53c-15.29-.02-27.75-12.47-27.63-27.59.12-14.89,12.66-27.22,27.59-27.14,15.48.09,27.62,12.26,27.52,27.6-.09,14.97-12.43,27.15-27.48,27.13Z"/>
      <path class="d" d="m230.14,53.15c15.03.03,27.3,12.39,27.14,27.34-.16,15-12.5,27.15-27.53,27.09-15.07-.06-27-12.23-26.93-27.48.07-15.29,11.93-26.99,27.32-26.95Z"/>
      <path class="d" d="m60.83,230.15c.02-15.35,11.8-27.11,27.14-27.09,15.24.02,27.3,12.01,27.3,27.14,0,14.83-12.56,27.4-27.33,27.34-15-.07-27.13-12.32-27.11-27.38Z"/>
      <path class="d" d="m256.44,230.61c-.08,14.91-12.03,26.87-26.9,26.93-14.79.05-27.42-12.46-27.51-27.26-.09-15.09,12.42-27.32,27.83-27.21,15.25.11,26.66,11.93,26.58,27.54Z"/>
      <path class="d" d="m202.8,388c-.03-15.3,11.72-27.1,27.08-27.19,15.18-.09,27.35,11.92,27.4,27.03.05,15.13-11.9,27.03-27.25,27.13-15.37.1-27.2-11.61-27.23-26.97Z"/>
    </g>
  </g>
</svg>