<?xml version="1.0" encoding="UTF-8"?>
<svg id="b" data-name="Layer 2" xmlns="http://www.w3.org/2000/svg" width="261.98" height="373" viewBox="0 0 261.98 373">
  <defs>
    <style>
      .d {
        fill: #88401f;
      }

      .d, .e, .f, .g, .h, .i, .j, .k, .l, .m, .n, .o {
        stroke-width: 0px;
      }

      .e {
        fill: #9a5c3f;
      }

      .f {
        fill: #9c9c9c;
      }

      .g {
        fill: #a16447;
      }

      .h {
        fill: #935438;
      }

      .i {
        fill: #a46649;
      }

      .j {
        fill: #a36548;
      }

      .k {
        fill: #424242;
      }

      .l {
        fill: #fbfbfb;
      }

      .m {
        fill: #3e3e3e;
      }

      .n {
        fill: #fcfcfc;
      }

      .o {
        fill: #a36648;
      }
    </style>
  </defs>
  <g id="c" data-name="Layer 1">
    <g>
      <path class="k" d="m212.73,290.19c8.87,27.6,17.74,55.21,26.62,82.81H21.95c9.24-28.93,18.57-57.82,28.28-86.58,5.31-15.75,18.36-24.83,35.3-26.93,2.47-.31,2.9-1.05,2.79-3.2-.17-3.47-.08-6.95-.11-10.44,28.59,0,57.16.02,85.75.02-.03,3.8,0,7.6-.1,11.4-.04,1.44.45,1.93,1.95,2.12,18.9,2.33,31.11,12.71,36.91,30.8Z"/>
      <path class="m" d="m235.22,123.08c.12-1.15.09-2.31.12-3.47-.02-13.72-.05-27.44-.04-41.16,0-6.14-.96-12.13-3.15-17.84-2.85-7.42-7.7-13.54-13.94-18.27-5.87-4.47-12.53-7.44-20.12-8.33-2.65-.32-5.52-.04-8.41-.93,6.43-5.59,5.95-13.72-1.69-17.26-7.78-3.61-15.66-6.31-24.22-7.77-10.75-1.84-20.92-.2-31.19,2.32-3.06.75-5.83,2.5-9.32,2.83.48-1.45.88-2.62,1.24-3.8,1.22-3.91-1.05-7.71-5-8.77-5.15-1.38-10.15-.18-15,1.08-14.35,3.7-25.31,12.35-32.77,24.95-2.76,4.65-5.31,7.13-11.02,7.93-8.86,1.24-16.27,6.24-22.35,12.95-7.56,8.33-11.57,18.02-11.52,29.36.05,14.24-.04,28.49-.06,42.73.06,3.63.11,7.26.18,10.88.18.18.36.37.53.55l-.05.18c3.61-1.23,4.99,1.83,7.01,3.64,1.88.62,3.69,1.73,5.76,1.34,3.13-.59,3.99,1.16,4.27,3.76.35,3.34.88,6.66,1.2,10,1.11,11.85,7.66,18.7,19.19,21.04,2.31.03,4.62.05,6.93.09,9.29-.03,18.6-.44,27.86.02,10.63.53,21.11-6.66,23.36-18.87.59-3.18,2.88-4.68,6.74-4.66,3.73.02,6.08,1.72,6.67,4.86,2.22,11.57,10.64,18.53,22.5,18.57,9.6.03,19.21.04,28.8.06,2.31-.02,4.61-.04,6.92-.07,11.26-2.3,17.93-9.67,19.02-20.91.37-3.76.91-7.5,1.28-11.26.19-1.98,1.15-2.75,3.1-2.63,2.43.15,4.85.04,7-1.38,2.05-4.08,5.7-4.11,9.51-3.74,1.42-2.57.35-5.35.65-8.02Zm-195.22,7.14c-2.15-.16-3.4-1.43-3.69-3.7.22-2.2,1.33-3.66,3.73-3.73,2.23-.06,3.53,1.23,3.83,3.35.28,1.99-1.84,4.23-3.88,4.08Zm79.01,6.81c-.73,5.52-1.76,11.04-3.06,16.46-1.57,6.55-7.42,10.98-14.78,11.09-11.18.18-22.37.2-33.55,0-8.35-.16-14.01-5.31-15.31-13.59-.81-5.1-1.42-10.23-1.93-15.36-.73-7.44,4.01-12.65,11.5-12.69,9.28-.06,18.57.07,27.85-.08,2.32-.04,2.63.86,2.36,2.78-.74,5.17-5.27,9.25-10.79,9.25-2.09,0-2.71.5-2.58,2.57.25,4.17-.37,8.39,1.9,12.33,3.13,5.42,8.7,8.42,14.74,7.56,6.38-.91,11.59-5.14,12.37-11.35.94-7.49,1.37-15.1-.96-22.75,7.4.13,13.2,6.52,12.25,13.81Zm90.02-2.49c-.49,5.56-1.15,11.12-2.05,16.62-1.34,8.19-6.86,13.23-15.09,13.4-11.39.24-22.79.2-34.17-.02-7.6-.15-13.21-5.2-14.8-12.75-.93-4.42-1.78-8.87-2.51-13.33-1.33-8.03,4.18-14.99,12.3-15.5,3.26-.2,6.54.04,9.81-.11,1.86-.08,2.03.76,1.88,2.29-.49,5.33-5.17,9.56-11.1,9.63-1.78.03-2.34.38-2.29,2.21.1,4.95-.37,9.97,2.87,14.27,3.81,5.05,10.14,7.23,15.97,5.54,6.35-1.83,10.35-7.06,10.77-14.37.18-3.26-.03-6.54.06-9.81.09-3.3-.64-6.44-1.77-9.71,6.83,0,13.47-.22,20.09.07,6.07.26,10.57,5.55,10.04,11.54Zm10.25-4.47c-2.14-.11-3.62-1.16-3.71-3.42-.09-2.36,1.24-3.76,3.63-3.87,2.29-.11,3.71,1.27,3.81,3.38.11,2.24-1.23,3.73-3.73,3.91Zm5.08-15.71c.03,2.05-.21,3.34-2.82,2.44-1.24-.43-2.71-.29-4.07-.29-6.39-.02-12.78-.02-19.18-.02h-12.78c-3.22,0-6.45.03-9.67.05-7.33.04-14.65.1-21.97-.11-9.83-.27-19.27,7.31-19.94,17.62-.11,1.69-.84,2.22-2.38,2.12-.95-.06-1.91-.13-2.85,0-2.46.38-3.49-.85-3.62-3.11-.55-9.54-9.84-16.61-18.38-16.58-22.26.06-44.51,0-66.77.03-4.13,0-4.14.1-4.13-4.09,0-6.01-.18-12.03.05-18.04.52-13.45,12.2-25.43,25.87-26.15,8.94-.46,16.9,2.84,25.22,4.73,17.28,3.92,34.68,6.72,52.44,5.46,9.83-.69,19.6-2.23,29.2-4.6,5.71-1.4,11.36-3.08,17.05-4.45,15.5-3.76,30.85.97,37,18.26,1.25,3.52,1.51,7.22,1.65,10.87.23,5.26.03,10.55.08,15.82Z"/>
      <path class="h" d="m173.96,245.87c-28.58,0-57.17-.01-85.75-.02-6.01,0-12.02.06-18.03-.03-23.73-.34-42.55-19.33-42.68-43.11-.08-13.71-.03-27.42-.04-41.13.01-2.55.02-5.11.04-7.66,2.98-.22,5.92.21,8.86.63.26.9.46,1.83.8,2.7,2.03,5.32,3.84,10.83,10.08,12.85,1.9.61,3.75,1.5,5.69,1.84,3.96.69,7.96,1.94,12,.31,3.27,8.77,1.62,16.23-5.14,21.87-1.05.87-2.13,1.71-3.19,2.57-1.29,1.04-1.46,2.28-.5,3.6.94,1.27,2.13,2.08,3.79,1.37.77-.33,1.54-.71,2.24-1.16,3.99-2.59,7.01-6.07,8.88-10.42.6-1.4,1.2-1.84,2.55-1.28,8.41,3.5,17.28,5.15,26.21,6.67,10.1,1.72,20.33,1.86,30.46,1.88,8.33.01,16.76-.35,25.12-1.53,10.33-1.45,20.58-3.09,30.36-6.82,1.89-.72,2.3-.32,3.19,1.29,2.85,5.1,7.06,8.83,12.4,11.28,1.78.81,3.02.35,4.03-1.22,1.05-1.62.67-3.05-.63-4.24-.77-.7-1.71-1.24-2.63-1.74-8.52-4.61-10.58-11.72-7.45-21.47,3.59.23,7.18-.01,10.68-.7,6.23-1.21,12.03-3.13,14.91-9.72,1.23-2.8,1.85-5.76,2.96-8.58,3.8,0,7.6,0,11.4,0,.02,2.56.04,5.13.05,7.69-.02,13.48-.02,26.96-.05,40.45-.04,24.63-18.9,43.59-43.55,43.78-5.69.04-11.37.03-17.06.04Z"/>
      <path class="i" d="m27.5,153.92c-.01,2.55-.02,5.11-.04,7.66-6.56,1.25-12.74.61-18.37-3.39-8.19-5.81-11.37-16.95-7.36-26.19,3.99-9.2,13.99-14.49,23.82-12.58.41.08.83.13,1.24.2.06,3.63.12,7.26.18,10.89.18.18.36.37.54.55,0,0-.06.17-.06.17.02,7.56.04,15.13.05,22.69Z"/>
      <path class="i" d="m234.62,161.61c-.02-2.56-.04-5.13-.05-7.69,0-7.61,0-15.21,0-22.82,1.42-2.57.35-5.35.65-8.02.13-1.15.09-2.31.12-3.47,9.5-1.66,17.33,1.04,22.91,9.1,4.97,7.19,4.93,16.59.16,23.81-4.85,7.33-13.34,10.97-21.92,9.4-.62-.11-1.24-.21-1.86-.31Z"/>
      <path class="j" d="m185.5,116.52c-10.55,0-21.1.23-31.64-.06-9.84-.27-19.27,7.31-19.94,17.63-.11,1.68-.84,2.21-2.38,2.11-.95-.06-1.92-.13-2.84.01-2.47.37-3.5-.85-3.63-3.11-.55-9.55-9.84-16.61-18.37-16.58-22.26.07-44.51,0-66.77.03-4.14,0-4.14.09-4.14-4.09,0-6.01-.18-12.03.05-18.04.52-13.44,12.2-25.43,25.87-26.15,8.94-.47,16.9,2.83,25.23,4.72,17.28,3.92,34.68,6.72,52.44,5.47,9.83-.69,19.61-2.24,29.2-4.6,5.7-1.4,11.36-3.08,17.04-4.46,15.5-3.75,30.85.97,37,18.27,1.25,3.52,1.5,7.22,1.66,10.87.22,5.26.02,10.55.08,15.82.02,2.05-.21,3.34-2.82,2.44-1.25-.43-2.71-.29-4.07-.29-10.65-.02-21.31-.01-31.96,0Z"/>
      <path class="l" d="m106.76,123.23c7.39.14,13.2,6.53,12.24,13.81-.72,5.53-1.76,11.03-3.06,16.46-1.57,6.55-7.42,10.98-14.78,11.1-11.18.18-22.37.2-33.55-.01-8.35-.16-14.01-5.31-15.31-13.59-.8-5.1-1.42-10.23-1.92-15.37-.73-7.44,4.01-12.65,11.49-12.69,9.28-.05,18.57.07,27.85-.07,2.32-.04,2.63.85,2.35,2.77-.74,5.17-5.27,9.26-10.79,9.24-2.1,0-2.71.5-2.58,2.56.26,4.17-.37,8.39,1.9,12.33,3.13,5.42,8.7,8.42,14.75,7.56,6.38-.91,11.59-5.14,12.37-11.35.94-7.48,1.36-15.1-.96-22.75Z"/>
      <path class="n" d="m178.89,122.94c6.83,0,13.47-.22,20.09.07,6.07.26,10.57,5.56,10.04,11.54-.49,5.56-1.15,11.11-2.04,16.62-1.34,8.19-6.86,13.23-15.1,13.4-11.38.24-22.78.21-34.17-.02-7.6-.15-13.21-5.2-14.8-12.74-.93-4.42-1.78-8.87-2.52-13.33-1.33-8.02,4.18-14.98,12.3-15.49,3.26-.2,6.54.03,9.8-.1,1.86-.08,2.03.76,1.89,2.29-.49,5.33-5.17,9.56-11.1,9.63-1.78.02-2.33.37-2.3,2.2.1,4.95-.36,9.98,2.87,14.27,3.81,5.05,10.14,7.23,15.97,5.54,6.35-1.84,10.34-7.06,10.77-14.37.19-3.26-.03-6.54.06-9.81.09-3.3-.64-6.44-1.76-9.71Z"/>
      <path class="d" d="m194.62,172.91c-3.13,9.74-1.07,16.86,7.45,21.47.92.5,1.86,1.04,2.63,1.74,1.3,1.19,1.68,2.62.63,4.24-1.01,1.57-2.25,2.03-4.03,1.22-5.34-2.45-9.55-6.18-12.4-11.28-.89-1.6-1.3-2.01-3.19-1.29-9.78,3.73-20.02,5.37-30.36,6.82-8.36,1.18-16.79,1.54-25.12,1.53-10.13-.02-20.36-.16-30.46-1.88-8.93-1.52-17.8-3.18-26.21-6.67-1.35-.56-1.94-.12-2.55,1.28-1.87,4.35-4.89,7.83-8.88,10.42-.7.46-1.47.83-2.24,1.16-1.67.72-2.86-.1-3.79-1.37-.97-1.32-.79-2.56.5-3.6,1.06-.86,2.14-1.69,3.19-2.57,6.76-5.64,8.41-13.11,5.14-21.87-.01-.41-.03-.82-.04-1.24,2.31.03,4.62.06,6.94.09-.06.89.2,1.69.65,2.44.32,2.39-.4,5.24,2.2,6.75,1.89,1.1,3.98,1.96,6.07,2.62,14.33,4.56,29.16,5.99,44.08,6.38,10.6.28,21.19-.59,31.72-1.88,8.54-1.04,16.97-2.7,25.05-5.76,5.48-2.07,5.44-2.18,5.52-8.09.81-.68.57-1.62.65-2.49,2.3-.02,4.61-.05,6.91-.07-.01.63-.03,1.26-.04,1.9Z"/>
      <path class="g" d="m187.75,171.09c-.08.87.16,1.82-.65,2.49-15.62-.01-31.25-.03-46.87-.04-2.05-5.82-5.51-10.85-8.91-15.92-1.01-1.5-1.92-1.95-3.04-.27-3.44,5.15-7.23,10.11-9,16.19-15.61,0-31.21,0-46.82.01-.45-.75-.71-1.55-.65-2.44,9.29-.03,18.59-.43,27.86.02,10.63.53,21.12-6.67,23.36-18.87.58-3.17,2.88-4.68,6.74-4.66,3.73.02,6.07,1.72,6.67,4.86,2.22,11.58,10.64,18.53,22.49,18.57,9.6.03,19.21.05,28.81.07Z"/>
      <path class="o" d="m194.62,172.91c.01-.63.03-1.26.04-1.9,11.26-2.31,17.93-9.67,19.02-20.91.37-3.76.91-7.5,1.28-11.26.19-1.98,1.15-2.75,3.1-2.63,2.43.15,4.85.04,6.99-1.38-.63,6.36-1.26,12.72-1.89,19.08-1.1,2.82-1.73,5.78-2.96,8.58-2.88,6.59-8.68,8.5-14.91,9.72-3.5.68-7.09.92-10.68.7Z"/>
      <path class="o" d="m64.88,171.01c.01.41.03.82.04,1.24-4.04,1.63-8.03.38-12-.31-1.94-.34-3.79-1.22-5.69-1.84-6.24-2.02-8.05-7.52-10.08-12.85-.33-.87-.53-1.8-.8-2.7-.67-6.55-1.96-13.05-1.89-19.67,1.88.62,3.68,1.73,5.76,1.34,3.12-.59,3.99,1.15,4.27,3.76.36,3.34.88,6.66,1.2,10,1.12,11.85,7.67,18.7,19.19,21.03Z"/>
      <path class="e" d="m223.17,153.91c.63-6.36,1.26-12.72,1.89-19.08,2.05-4.08,5.7-4.11,9.51-3.74,0,7.61,0,15.21,0,22.82-3.8,0-7.6,0-11.4,0Z"/>
      <path class="e" d="m34.46,134.88c-.07,6.63,1.22,13.12,1.89,19.67-2.94-.42-5.87-.85-8.86-.63-.02-7.56-.04-15.13-.05-22.69,3.61-1.22,4.99,1.83,7.02,3.65Z"/>
      <path class="f" d="m36.32,126.52c.22-2.2,1.33-3.66,3.73-3.73,2.23-.06,3.53,1.22,3.83,3.35.28,1.99-1.84,4.23-3.88,4.08-2.15-.16-3.4-1.43-3.68-3.71Z"/>
      <path class="f" d="m219.28,130.08c-2.14-.1-3.63-1.16-3.71-3.42-.09-2.36,1.24-3.77,3.63-3.87,2.28-.1,3.72,1.28,3.81,3.38.1,2.24-1.24,3.73-3.73,3.91Z"/>
      <path class="k" d="m27.5,131.06c-.18-.18-.36-.37-.54-.55.18.18.36.37.54.55Z"/>
      <path class="h" d="m140.23,173.54c15.62.01,31.25.03,46.87.04-.08,5.9-.04,6.01-5.52,8.09-8.08,3.06-16.51,4.72-25.05,5.76-10.53,1.28-21.12,2.15-31.72,1.88-14.92-.39-29.74-1.82-44.08-6.38-2.09-.67-4.18-1.52-6.07-2.62-2.6-1.52-1.87-4.36-2.2-6.75,15.61,0,31.21,0,46.82-.01-1.45,4.96,1.18,8.42,4.66,11.15,2.96,2.32,6.55,2.61,10.08.85,4.98-2.49,6.79-6.61,6.2-11.98Z"/>
      <path class="d" d="m140.23,173.54c.59,5.37-1.23,9.5-6.2,11.98-3.53,1.76-7.12,1.48-10.08-.85-3.48-2.72-6.1-6.19-4.66-11.15,1.77-6.08,5.56-11.04,9-16.19,1.12-1.68,2.03-1.23,3.04.27,3.4,5.07,6.86,10.1,8.91,15.92Z"/>
    </g>
  </g>
</svg>