<?xml version="1.0" encoding="UTF-8"?>
<svg id="b" data-name="Layer 2" xmlns="http://www.w3.org/2000/svg" width="390.16" height="559.98" viewBox="0 0 390.16 559.98">
  <defs>
    <style>
      .d {
        fill: #559004;
      }

      .d, .e, .f, .g, .h, .i, .j, .k, .l {
        stroke-width: 0px;
      }

      .e {
        fill: #d47147;
      }

      .f {
        fill: #f19f7d;
      }

      .g {
        fill: #fefdfd;
      }

      .h {
        fill: #1680b1;
      }

      .i {
        fill: #d47248;
      }

      .j {
        fill: #136d98;
      }

      .k {
        fill: #44a0cc;
      }

      .l {
        fill: #553629;
      }
    </style>
  </defs>
  <g id="c" data-name="Layer 1">
    <g>
      <path class="k" d="m254.82,370.2c0,13.32.07,26.65-.05,39.97-.03,2.81.84,4.59,3.24,6.13,17.75,11.39,28.71,27.72,34.99,47.66,10.09,32.07,20.53,64.02,30.82,96.02h-33c-5.04-6.54-11.17-11.9-18.29-15.99-2.87-1.65-3.9-3.61-3.82-6.8.17-7.16-.05-14.33.1-21.48.07-3.35-.98-4.84-4.56-4.76-9.16.21-18.32.14-27.48.19-5.96,0-11.92,0-17.88-.01-17.04,0-34.08.02-51.13.02-5.96-.01-11.92-.02-17.87-.03-8.79-.04-17.58.02-26.37-.16-3.43-.07-4.74,1.16-4.66,4.62.17,7.13-.09,14.27.11,21.39.1,3.39-1.06,5.37-4.04,7.15-6.96,4.15-13.57,8.87-18.08,15.87h-34c11.27-35.13,22.08-70.41,34.02-105.32,5.33-15.57,15.91-27.99,29.88-37.04,3.36-2.17,4.55-4.58,4.49-8.51-.2-12.97-.03-25.95,0-38.92,5.64-.06,11.29-.17,16.94-.16,35.55.04,71.1.1,106.66.16Z"/>
      <path class="h" d="m167.76,511.15c17.04,0,34.08-.02,51.13-.03-.02,5.97-.14,11.94-.03,17.91.29,15.17-2.73,12.6,13.19,12.99,3.77.09,4.89-1.45,4.82-5.01-.18-8.62-.08-17.24-.1-25.87,9.16-.05,18.33.02,27.48-.19,3.58-.08,4.63,1.41,4.56,4.76-.15,7.16.07,14.33-.1,21.48-.08,3.19.95,5.15,3.82,6.8,7.12,4.1,13.25,9.45,18.29,15.99H96.84c4.51-7.01,11.12-11.72,18.08-15.87,2.98-1.78,4.13-3.76,4.04-7.15-.2-7.13.06-14.26-.11-21.39-.08-3.46,1.23-4.7,4.66-4.62,8.79.19,17.58.13,26.37.16-.02,6.15-.14,12.31-.03,18.46.26,14.38-2.63,12.12,12.8,12.43,3.96.08,5.26-1.66,5.19-5.41-.16-8.48-.08-16.96-.09-25.44Z"/>
      <path class="f" d="m254.82,370.2c-35.55-.06-71.1-.12-106.66-.16-5.65,0-11.29.1-16.94.16-8.65-.06-17.3-.12-25.95-.17-35.45-.19-64.03-28.67-64.27-64.15-.12-17.97-.08-35.94-.03-53.91,0-3.14.26-4.88-4.38-4.16-15.41,2.37-29.78-8.14-35.09-22.82-6.97-19.28,11.38-43,30.79-40.99,2.46.25,5.25.92,7.62-.82,19.34-2.55,28.23-18.23,26.93-33.13-.16-1.82.15-3.68-.06-5.49-.36-3.19.81-4.63,4.06-5.42,14.04-3.44,25.13-11.39,32.8-23.55,2.81-4.45,4.1-3.44,6.86-.33,14.93,16.8,33.98,23.86,56.13,22.77,9.15-.45,12.69-6.72,9.18-15.27-1.11-2.71-2.33-5.37-3.9-8.97,46.05,32.12,93.78,38.31,144.34,14.54,2.23,7.78,2.5,15.57,2.13,23.34-.96,20.38,15.61,32.9,31.4,31.46,1.91,2.35,4.36.79,6.49.71,15.03-.58,28.64,8.15,32.45,22.21,7.13,26.27-13.68,45.28-35.73,41.63-4-.66-4.36.55-4.35,3.87.1,17.97.11,35.95-.02,53.92-.21,30.66-20.73,56.18-50.51,63.06-10.53,2.43-21.21,1.22-31.83,1.5-3.82.1-7.65.12-11.48.18ZM105.19,200.44c-.12,0-.24,0-.36,0,0,4.66-.07,9.32.01,13.98.34,18.88,15.4,35.24,33.69,36.66,20.62,1.6,38.13-11.37,41.3-30.96,1.87-11.56,1.29-23.3.56-34.88-1.22-19.42-16.75-34.49-35.11-35.25-20.5-.84-36.95,12.06-39.96,32.01-.91,6.01-.14,12.28-.14,18.43Zm171.87.54c0-5.32.26-10.66-.05-15.96-1.16-20.31-17.92-35.42-38.69-35.07-19.87.34-36.09,16.29-36.59,36.24-.24,9.48-.23,18.97-.01,28.45.46,20.27,16.65,36.26,36.79,36.56,20.71.31,37.35-14.85,38.51-35.26.28-4.97.04-9.97.03-14.96Zm-86.36,77.15c11.18.09,18.87-10.23,15.29-20.85-2.79-8.29-7.8-15.4-12.95-22.38-1.26-1.7-2.64-2.06-3.95-.11-5.12,7.57-10.85,14.84-13.34,23.84-2.68,9.68,4.91,19.42,14.96,19.5Zm-12.08,26.91c2.84.01,5.64-.07,8.43-.75,3.95-.96,6.54-3.13,5.6-7.34-.92-4.14-4.26-4.97-8.18-4.59-15.35,1.47-28.6-2.49-38.32-15.25-1.36-1.79-2.96-3.14-5.39-3.08-2.29.05-4.5.6-5.42,2.83-1.4,3.42-.22,6.45,2.09,9.19,10.78,12.75,24.71,18.63,41.19,19Z"/>
      <path class="l" d="m349.79,183.12c-15.79,1.44-32.36-11.09-31.4-31.46.37-7.78.1-15.56-2.13-23.34-50.56,23.77-98.29,17.58-144.34-14.54,1.57,3.61,2.79,6.27,3.9,8.97,3.5,8.55-.03,14.82-9.18,15.27-22.16,1.09-41.2-5.98-56.13-22.77-2.77-3.11-4.05-4.13-6.86.33-7.67,12.16-18.76,20.12-32.8,23.55-3.25.8-4.42,2.23-4.06,5.42.2,1.81-.1,3.67.06,5.49,1.3,14.91-7.59,30.59-26.93,33.13-.02-23.65-.16-47.31-.02-70.96.16-26.17,20.92-51.97,47.41-58.88,4.38-1.14,5.46-2.13,2.66-6.32-4.02-6.01-1.57-11.27,5.49-10.57,10.27,1.02,15.85-2.47,19.88-11.98,3.22-7.62,7.55-7.17,12.28-.17.75,1.1,1.54,2.18,2.21,3.33,1.4,2.41,2.67,2.05,4.69.41,18.09-14.75,38.72-23.73,61.87-26.97,26.79-3.76,50.93,2.6,72.24,19.08,9.39,7.26,17.41,16,23.33,26.41,1.85,3.25,4.06,5.06,7.92,5.95,26.63,6.21,45.52,27.53,49.05,54.74,1.9,14.61.53,29.27.84,43.9.23,10.66.03,21.32.02,31.98Z"/>
      <path class="j" d="m236.76,511.14c.02,8.62-.08,17.25.1,25.87.07,3.56-1.04,5.1-4.82,5.01-15.92-.38-12.9,2.18-13.19-12.99-.11-5.97.01-11.94.03-17.91,5.96,0,11.92,0,17.88.01Z"/>
      <path class="j" d="m167.76,511.15c.02,8.48-.06,16.96.09,25.44.07,3.75-1.23,5.49-5.19,5.41-15.44-.31-12.54,1.95-12.8-12.43-.11-6.15.01-12.3.03-18.46,5.96.01,11.92.02,17.87.04Z"/>
      <path class="g" d="m105.19,200.44c0-6.15-.77-12.42.14-18.43,3.02-19.95,19.47-32.85,39.96-32.01,18.36.75,33.88,15.83,35.11,35.25.73,11.58,1.31,23.32-.56,34.88-3.17,19.58-20.69,32.55-41.3,30.96-18.29-1.42-33.36-17.78-33.69-36.66-.08-4.66-.01-9.32-.01-13.98.12,0,.24,0,.36,0Zm66.52,3.59s.01,0,.02,0c0-3.49.17-6.99-.03-10.47-.54-9.31-8.59-16.39-17.31-15.49-2.3.24-3.19.63-2.74,3.54.91,5.84-.23,12.08-6.38,13.99-5.77,1.79-6.16,5-5.78,9.67.23,2.81-.02,5.65.11,8.47.38,8.41,7.51,16.6,15.04,16.18,8.32-.46,16.11-4.88,17.04-15.93.28-3.3.04-6.64.04-9.97Z"/>
      <path class="g" d="m277.07,200.99c0,4.99.25,9.99-.04,14.96-1.17,20.41-17.81,35.57-38.51,35.26-20.14-.3-36.33-16.29-36.79-36.56-.21-9.48-.22-18.97.01-28.45.5-19.95,16.71-35.9,36.59-36.24,20.76-.36,37.52,14.76,38.69,35.07.3,5.3.05,10.64.05,15.96Zm-34.54,3.58c.07,0,.15,0,.22,0,0-3.16.14-6.32-.03-9.47-.53-10.11-7.53-17.39-16.27-17.06-2.61.1-4.22.47-3.72,4.1.78,5.65-.55,11.69-6.49,13.48-5.79,1.74-6.14,5.01-5.76,9.66.23,2.81,0,5.65.1,8.47.33,8.49,7.35,16.06,15.05,16.31,8.17.27,15.92-6.52,16.82-15.06.36-3.45.06-6.96.06-10.45Z"/>
      <path class="e" d="m190.7,278.14c-10.05-.08-17.63-9.82-14.96-19.5,2.49-9,8.21-16.27,13.34-23.84,1.32-1.95,2.7-1.59,3.95.11,5.16,6.98,10.16,14.09,12.95,22.38,3.58,10.62-4.11,20.94-15.29,20.85Z"/>
      <path class="i" d="m178.62,305.05c-16.48-.37-30.41-6.24-41.19-19-2.32-2.74-3.5-5.77-2.09-9.19.92-2.23,3.13-2.77,5.42-2.83,2.44-.06,4.03,1.29,5.39,3.08,9.72,12.76,22.97,16.71,38.32,15.25,3.92-.37,7.26.45,8.18,4.59.93,4.21-1.66,6.38-5.6,7.34-2.79.68-5.59.77-8.43.75Z"/>
      <path class="d" d="m171.72,204.04c0,3.32.23,6.67-.04,9.97-.93,11.05-8.71,15.46-17.04,15.93-7.53.42-14.65-7.77-15.04-16.18-.13-2.82.12-5.66-.11-8.47-.38-4.67,0-7.88,5.78-9.67,6.15-1.91,7.29-8.15,6.38-13.99-.45-2.91.44-3.3,2.74-3.54,8.72-.9,16.76,6.18,17.31,15.49.2,3.48.03,6.98.03,10.47,0,0-.01,0-.02,0Z"/>
      <path class="d" d="m242.53,204.57c0,3.48.3,7-.06,10.45-.9,8.54-8.66,15.33-16.82,15.06-7.71-.26-14.72-7.82-15.05-16.31-.11-2.82.13-5.66-.1-8.47-.38-4.66-.03-7.93,5.76-9.66,5.94-1.79,7.27-7.82,6.49-13.48-.5-3.64,1.11-4,3.72-4.1,8.73-.34,15.73,6.94,16.27,17.06.17,3.15.03,6.31.03,9.47-.07,0-.15,0-.22,0Z"/>
    </g>
  </g>
</svg>