<?xml version="1.0" encoding="UTF-8"?>
<svg id="b" data-name="Layer 2" xmlns="http://www.w3.org/2000/svg" width="366.14" height="471.81" viewBox="0 0 366.14 471.81">
  <defs>
    <style>
      .d {
        fill: #d47249;
      }

      .d, .e, .f, .g, .h, .i, .j, .k, .l, .m, .n, .o, .p, .q {
        stroke-width: 0px;
      }

      .e {
        fill: #e58d67;
      }

      .f {
        fill: #513a30;
      }

      .g {
        fill: #fdfcfc;
      }

      .h {
        fill: #f0a07d;
      }

      .i {
        fill: #989898;
      }

      .j {
        fill: #e18d69;
      }

      .k {
        fill: #71574c;
      }

      .l {
        fill: #ef9f7c;
      }

      .m {
        fill: #414040;
      }

      .n {
        fill: #fbfbfb;
      }

      .o {
        fill: #f09f7c;
      }

      .p {
        fill: #44a0cc;
      }

      .q {
        fill: #553629;
      }
    </style>
  </defs>
  <g id="c" data-name="Layer 1">
    <g>
      <path class="p" d="m49.17,471.81c11.47-35.74,22.16-71.75,34.72-107.11,6.41-18.04,20.7-29.35,40.1-32.96,7.13-1.33,7.16-1.18,7.16-8.4,0-3.16,0-6.32,0-9.48,8.68-.15,17.36-.31,26.04-.46,8.58,5.49,17.28,7.76,26.33.99,1.09-.81,2.18-.52,3.22.21,8.75,6.14,17.16,4.75,25.36-1.17,8.38.14,16.76.29,25.14.43,0,4.5.08,9-.04,13.49-.06,2.46.77,3.38,3.36,3.73,23.46,3.17,38.02,16.7,45.13,38.96,10.38,32.5,20.9,64.95,31.34,97.42.46,1.42.72,2.89,1.07,4.34H49.17Z"/>
      <path class="o" d="m157.19,313.4c-8.68.15-17.36.31-26.04.46-5.99,0-11.98,0-17.97,0-.83-.08-1.65-.24-2.48-.24-33.47,0-56.25-27.63-54.72-56.81.74-13.95.05-27.98.18-41.97.03-3.37-.84-4.54-4.3-3.52-3.75,1.1-7.6.55-11.39-.08-12.85-4.6-19.91-13.25-20.33-24.92-.41-11.33,5.55-21.07,15.56-25.73,6.01-2.8,12.22-2.68,18.55-1.83,6.38-1.28,12.66-6.18,19.24-.43.65.57,1.91.7,2.86.64,3.59-.2,3.87,1.74,3.7,4.7-.3,4.97-.13,9.97-.15,14.95-.07,13.39,4.43,24.95,13.45,34.89,2.54,2.8,6.43,4.18,7.99,7.91-1.6.34-2.99-.31-4.24-1.12-8.2-5.25-15.3-11.3-16-22.03-.19-2.93-2.05-4.87-4.78-4.79-3.08.09-3.04,2.91-3.17,5.3-.18,3.26.73,6.24,2.05,9.16,4.29,9.52,11.59,16.21,20.54,21.04,3.51,1.9,4.56,4.1,4.47,7.86-.22,9.82-.08,19.65-.06,29.47,0,2.52-.21,5.39,3.47,5.41,3.43.01,4.5-2.31,4.5-5.35,0-9.49.02-18.98.01-28.47,0-4.96.48-9.99-1.97-14.62,2.59,1.12,5.09,2.52,7.77,3.3,28.85,8.41,55.04-5.97,63.76-35.15,1.51-5.06,4.43-7.61,9.52-7.73,5.3-.13,8.28,2.31,9.72,7.89,3.4,13.2,11.09,23.26,22.62,30.32,14.55,8.92,29.85,8.89,45.51,3.3.02,13.95.03,27.9.05,41.85,0,2.28.23,4.52,3.21,4.66,3.07.14,4.54-1.62,4.73-4.56.07-1.16.05-2.32.05-3.49,0-9.13.15-18.27-.07-27.4-.09-3.79,1.15-5.89,4.57-7.81,11.16-6.3,20.17-14.46,21.95-28.24.67-5.18-1.25-7.21-6.66-6.33,2.16-10.31,2.3-20.73,1.68-31.18-.13-2.19.14-3.26,2.62-3.69,5.3-.91,10.48-2.82,15.98-1.39,2.13,1.75,4.75.7,7.09,1.04,14.14,2.05,22.91,10.35,24.57,23.91,1.48,12.03-6.08,23.47-18.6,28.14-.47.17-.93.34-1.4.51-2.48.22-5.05.95-7.43.56-4.91-.81-5.37,1.54-5.32,5.56.19,14.49.4,28.99-.01,43.47-.64,22.43-11.71,38.29-31.74,48.05-8.62,4.2-17.95,4.6-27.28,4.95-5.27,0-10.54.01-15.81.02-8.38-.14-16.76-.29-25.14-.43.95-1.75,1.9-3.49,2.86-5.24,1.17-2.13,1.49-4.23-.96-5.6-2.34-1.31-4.32-.86-5.99,1.52-5.75,8.17-12.71,8.25-19.18.24-2.47-3.06-4.73-3.22-7.3-.14-6.82,8.13-12.89,8.08-19.88-.13-1.59-1.86-3.32-2.9-5.58-1.36-2.18,1.49-2.14,3.55-1.07,5.74.79,1.62,2.24,2.95,2.2,4.94Zm35.75-39.59v.07c-1.16,0-2.33-.07-3.49.02-1.66.12-2.85.95-3.15,2.66-.33,1.81.3,3.21,1.9,4.24,6.99,4.52,20.25-1.42,20.75-9.71.25-4.1,1.89-5.65,5.44-6.98,6.97-2.61,10.26-7.99,9.71-14.6-.54-6.48-5.95-12.69-12.29-14.23-2.11-.51-3.61.23-4.66,1.94-1.18,1.9-.43,3.59,1.09,4.86,1.13.95,2.6,1.49,3.79,2.38,2.34,1.74,4.53,3.91,3.82,7.03-.77,3.36-3.44,5-6.83,5.71-2.44.51-4.64-.16-6.83-.81-3.98-1.17-7.86-2.73-11.86-3.81-5.56-1.5-10.9-1.17-15.4,3.01-1.5,1.39-2.04,3.02-.82,4.89,1.15,1.77,2.88,2.66,4.68,1.5,6.84-4.43,12.79-.26,18.93,1.79,2.43.81,3.77,2.76,3.34,5.46-.45,2.86-2.33,4.3-5.13,4.57-.99.09-1.99.02-2.99.02Zm-5.56-36.89c8.55.04,15.04-8.09,12.66-16.29-2.07-7.12-6.33-13.15-10.57-19.14-1.24-1.75-2.78-2.06-4.05-.27-4.42,6.24-9.27,12.35-11.04,19.96-1.91,8.2,4.51,15.7,13,15.74Z"/>
      <path class="f" d="m265.07,225.24c-15.66,5.58-30.97,5.61-45.51-3.3-11.52-7.06-19.21-17.11-22.62-30.32-1.44-5.58-4.42-8.02-9.72-7.89-5.09.12-8.01,2.67-9.52,7.73-8.72,29.18-34.92,43.57-63.76,35.15-2.68-.78-5.18-2.19-7.77-3.3-.57-.25-1.14-.51-1.71-.76-.99-.57-1.85-1.56-3.2-1.01l.07-.09c-1.56-3.74-5.45-5.12-7.99-7.92-9.02-9.94-13.52-21.51-13.45-34.89.03-4.99-.14-9.98.15-14.95.18-2.96-.1-4.9-3.7-4.7-.95.05-2.21-.07-2.86-.64-6.59-5.76-12.87-.85-19.24.43,0-16.15-.16-32.29,0-48.44.23-22.01,7.96-40.26,27.34-52.28,7.03-4.36,14.71-7.06,23.07-7.07,3.36,0,4.68-1.24,5.98-4.42,9.45-23.03,25.31-39.19,50.25-44.98,3.7-.86,7.53-1.37,11.33-1.56,8.39-.41,12.33,4.47,10.47,12.59-.25,1.11-.55,2.21-.98,3.94,7.06-2.09,13.48-4.58,20.26-5.9,20.51-3.99,39.86-.91,58.68,7.94,11.06,5.2,10.9,16.56,2.33,23.73-3,2.51-5.96,5.06-8.93,8.19,18.87-1.2,34.76,4.94,46.83,19.03,7.57,8.84,12.19,19.42,12.29,31.47-.02,18.7-.05,37.39-.07,56.09,0,.18.03.36.07.54-5.5-1.43-10.68.47-15.98,1.39-2.48.43-2.75,1.5-2.62,3.69.62,10.45.48,20.87-1.68,31.18-1.09,1.69-1.63,3.56-1.85,5.53-3.9,6.72-8.35,13.01-14.08,18.33l.05-.07c-1.58.72-2.92,1.75-3.96,3.14l.06-.03c-.64.36-1.28.72-1.93,1.08l-.08.04c-.44.3-.88.61-1.32.91-1.81.32-3.27,1.35-4.72,2.39Zm-61.3-61.16c-.89,9.91-1.23,19.78,2.36,29.34-.06,2.87,1.87,4.92,3.14,7.17,8.16,14.5,25.24,22.39,42.38,20,16.63-2.32,31.61-17.4,33.5-31.29,2.21-8.74,2.23-17.56.99-26.43.1-12.84-10.77-24.29-24.26-24.82-11.11-.43-22.26-.45-33.36-.04-13.97.52-24.57,12-24.76,26.07Zm-32.92-1.12c-.64-12.96-10.71-24.11-23.43-24.77-11.75-.61-23.57-.65-35.32-.07-13.53.67-24.13,12.66-23.84,25.83-.27,8.7-1.23,17.44,1.15,26.02,3.22,12.79,11.23,21.61,22.86,27.33,21.71,10.67,50.65-2.25,56.69-25.25,3.32-9.52,2.11-19.33,1.87-29.08Zm29.31-46.88c-2.69-.32-5.39-.64-8.08-.96-15.9-3.55-31.16-9.96-40.04-23.52-7.65-11.68-16.87-12.82-28.37-11.73-1.49.14-2.99.08-4.48.19-10.4.78-19.89,4.51-27.02,11.85-8.68,8.94-13.6,19.89-12.82,32.93.22,3.75.91,5.17,5,5.1,15.13-.26,30.26-.2,45.39-.11,8.46.05,16.97-.64,25.33,1.33,3.25,1.7,6.49,3.4,9.74,5.09,7.34,6.14,12.51,13.55,14.08,23.24.51,3.14-1.36,7.5,1.66,9.15,2.58,1.41,6.46.45,9.77.53.33,0,.67-.04.99,0,2.96.37,4.05-.81,4.05-3.89,0-11.66,4.83-21.09,13.79-28.47,3.36-1.86,6.72-3.72,10.08-5.59,5.23-1.14,10.51-1.45,15.86-1.43,16.64.08,33.29.04,49.93.02,1.9,0,4.07.56,4.13-2.7.28-15.91-4.98-29.29-17.96-38.99-12-8.97-26.07-8.62-40.07-8.23-.6.02-1.38-.17-1.7.65-.41,1.05.43,1.54,1.05,1.98,3.47,2.46,7.01,4.85,10.49,7.3,7.47,5.26,7.3,10.02-.2,15.23-12.25,8.51-25.9,11.6-40.59,11.01Zm96.1,24.47c-2.55.14-4.14,1.46-4.1,3.98.03,2.45,1.55,4.04,4.07,4.04,2.31,0,3.65-1.53,3.82-3.75.21-2.6-1.38-3.87-3.79-4.27Zm-213.95,3.85c-.13-2.1-1.2-3.75-3.57-3.8-2.45-.06-4.29,1.25-4.24,3.88.05,2.48,1.6,4.08,4.16,4.02,2.34-.05,3.56-1.54,3.65-4.09Z"/>
      <path class="q" d="m40.47,211.25c3.8.63,7.65,1.18,11.39.08,3.46-1.02,4.33.15,4.3,3.52-.13,13.99.56,28.01-.18,41.97-1.54,29.18,21.25,56.82,54.72,56.81.83,0,1.65.16,2.48.24-8.04,7.75-17.84,12.66-28.02,16.76-15.3,6.16-31.24,8.99-47.78,8.24-9.44-.43-14.58-3.83-17.28-11.59-.99-2.85-.95-5.53.17-8.25,4.18-10.15,8.36-20.29,12.54-30.43.57-1.38,1.13-2.77,1.66-4.17.87-2.33.36-3.13-2.43-3.16-7.98-.09-15.9-.85-23.56-3.42-8.67-2.91-11.03-9.63-5.52-17.01,5.95-7.99,12.41-15.6,18.31-23.63,6.37-8.67,13.9-16.49,19.2-25.94Z"/>
      <path class="q" d="m253.04,313.84c9.33-.35,18.66-.75,27.28-4.95,20.04-9.76,31.1-25.62,31.74-48.05.42-14.48.2-28.98.01-43.47-.05-4.02.42-6.37,5.32-5.56,2.38.39,4.95-.34,7.43-.56,12.82,16.76,25.66,33.51,38.47,50.29,5.14,6.74,3.16,13.26-4.74,16.01-7.95,2.77-16.2,3.74-24.53,3.61-3.28-.05-3.9.38-2.58,3.45,4.34,10.09,8.38,20.31,12.77,30.38,5.34,12.28-.21,22.86-13.38,23.65-27.92,1.68-53.35-5.68-75.83-22.58-.78-.58-1.32-1.48-1.97-2.23Z"/>
      <path class="k" d="m313.1,157.12c.02-18.7.05-37.4.07-56.09,1.03,1.27.92,2.78.92,4.26,0,15.69,0,31.39,0,47.08,0,1.65.08,3.32-.99,4.75Z"/>
      <path class="j" d="m157.19,313.4c.04-1.99-1.41-3.32-2.2-4.94-1.07-2.19-1.11-4.25,1.07-5.74,2.27-1.55,4-.51,5.58,1.36,6.99,8.22,13.07,8.26,19.88.13,2.58-3.08,4.84-2.91,7.3.14,6.46,8.01,13.43,7.94,19.18-.24,1.67-2.38,3.65-2.83,5.99-1.52,2.45,1.37,2.13,3.48.96,5.6-.95,1.74-1.9,3.49-2.86,5.24-8.2,5.92-16.61,7.3-25.36,1.17-1.04-.73-2.14-1.03-3.22-.21-9.05,6.77-17.75,4.5-26.33-.99Z"/>
      <path class="d" d="m192.94,273.81c1,0,2,.08,2.99-.02,2.8-.27,4.67-1.71,5.13-4.57.43-2.7-.91-4.65-3.34-5.46-6.14-2.05-12.08-6.23-18.93-1.79-1.79,1.16-3.53.28-4.68-1.5-1.22-1.87-.68-3.5.82-4.89,4.5-4.18,9.84-4.51,15.4-3.01,4.01,1.08,7.88,2.64,11.86,3.81,2.2.65,4.39,1.32,6.83.81,3.38-.71,6.06-2.35,6.83-5.71.71-3.12-1.48-5.29-3.82-7.03-1.19-.89-2.66-1.43-3.79-2.38-1.52-1.27-2.26-2.96-1.09-4.86,1.05-1.7,2.55-2.45,4.66-1.94,6.34,1.54,11.75,7.75,12.29,14.23.55,6.61-2.74,11.99-9.71,14.6-3.55,1.33-5.19,2.88-5.44,6.98-.51,8.29-13.76,14.23-20.75,9.71-1.6-1.03-2.22-2.43-1.9-4.24.31-1.71,1.49-2.54,3.15-2.66,1.16-.08,2.32-.02,3.49-.02v-.07Z"/>
      <path class="e" d="m291.04,199.45c.21-1.98.76-3.85,1.85-5.53,5.41-.88,7.33,1.15,6.66,6.33-1.77,13.78-10.79,21.94-21.95,28.24-3.41,1.93-4.66,4.02-4.57,7.81.23,9.13.07,18.27.07,27.4,0,1.16.02,2.33-.05,3.49-.19,2.94-1.66,4.7-4.73,4.56-2.98-.13-3.2-2.38-3.21-4.66-.02-13.95-.04-27.9-.05-41.85,1.45-1.03,2.91-2.07,4.72-2.39.44-.3.88-.61,1.32-.91,0,0,.08-.04.08-.04.64-.36,1.28-.72,1.93-1.08,0,0-.06.03-.06.03,2.17.02,3.86-.56,3.96-3.14,0,0-.05.07-.05.07,6.88-1.29,13.72-10.2,14.08-18.33Z"/>
      <path class="e" d="m104.46,222.55c.57.25,1.14.51,1.71.76,2.45,4.63,1.96,9.66,1.96,14.62,0,9.49,0,18.98-.01,28.47,0,3.04-1.07,5.36-4.5,5.35-3.68-.02-3.47-2.89-3.47-5.41-.02-9.82-.16-19.65.06-29.47.08-3.76-.96-5.97-4.47-7.86-8.95-4.83-16.26-11.53-20.54-21.04-1.32-2.92-2.23-5.9-2.05-9.16.13-2.38.09-5.21,3.17-5.3,2.72-.08,4.59,1.87,4.78,4.79.69,10.73,7.8,16.78,16,22.03,1.25.8,2.64,1.46,4.24,1.12,0,0-.07.09-.07.09.73,1.4,1.66,2.18,3.2,1.01Z"/>
      <path class="d" d="m187.38,236.92c-8.49-.04-14.91-7.53-13-15.74,1.77-7.61,6.62-13.72,11.04-19.96,1.27-1.79,2.81-1.47,4.05.27,4.24,5.98,8.5,12.02,10.57,19.14,2.38,8.2-4.1,16.33-12.66,16.29Z"/>
      <path class="o" d="m155.07,131.16c-8.36-1.96-16.88-1.28-25.33-1.33-15.13-.09-30.26-.15-45.39.11-4.08.07-4.78-1.35-5-5.1-.77-13.04,4.14-24,12.82-32.93,7.13-7.35,16.62-11.07,27.02-11.85,1.49-.11,3-.05,4.48-.19,11.51-1.08,20.72.05,28.37,11.73,8.88,13.56,24.14,19.97,40.04,23.52-.25,3.7,1.47,6.63,3.33,9.69,3.35,5.51,9.19,7.99,13.74,12.02-8.96,7.38-13.79,16.81-13.79,28.47,0,3.09-1.09,4.26-4.05,3.89-.33-.04-.66,0-.99,0-3.31-.08-7.19.88-9.77-.53-3.02-1.65-1.15-6.01-1.66-9.15-1.57-9.7-6.73-17.1-14.08-23.24,1-1.18,2.41-1.69,3.75-2.37,5.84-2.96,10.08-7.47,12.58-13.54,1.07-2.6,1.76-5.44-1.5-6.86-3.35-1.46-4.59,1.07-5.8,3.69-2.46,5.3-6.33,9.13-11.86,11.45-2.28.96-5.01.63-6.91,2.53Z"/>
      <path class="o" d="m200.17,116.08c14.68.59,28.34-2.5,40.59-11.01,7.5-5.21,7.67-9.97.2-15.23-3.48-2.45-7.02-4.84-10.49-7.3-.62-.44-1.46-.93-1.05-1.98.32-.82,1.1-.63,1.7-.65,14-.4,28.06-.75,40.07,8.23,12.97,9.7,18.23,23.08,17.96,38.99-.06,3.26-2.23,2.7-4.13,2.7-16.64.02-33.29.07-49.93-.02-5.35-.03-10.63.29-15.86,1.43-1.86-1.9-4.5-1.88-6.79-2.66-6.24-2.13-10.1-6.46-12.27-12.51Z"/>
      <path class="h" d="m168.98,192.04c-6.05,23-34.99,35.92-56.69,25.25-11.64-5.72-19.64-14.54-22.87-27.33,16.67-2.44,33.43-3.55,50.27-3.29,10.06.15,19.9,1.51,29.28,5.37Z"/>
      <path class="h" d="m285.16,189.29c-1.89,13.88-16.87,28.96-33.5,31.28-17.15,2.39-34.22-5.5-42.38-20-1.27-2.25-3.2-4.3-3.14-7.17,11.14-4.75,22.79-6.72,34.88-6.8,14.78-.09,29.47,1.04,44.14,2.68Z"/>
      <path class="l" d="m88.27,163.94c-.29-13.17,10.31-25.16,23.84-25.83,11.75-.58,23.58-.54,35.32.07,12.72.66,22.79,11.82,23.43,24.78-2.32-.32-4.63-.64-6.95-.96-14.23-2.37-28.53-3.43-42.94-2.14-11.16-.68-21.89,1.96-32.7,4.09Z"/>
      <path class="l" d="m203.78,164.08c.19-14.07,10.79-25.55,24.76-26.07,11.11-.41,22.26-.39,33.36.04,13.48.52,24.35,11.97,24.26,24.82-1.78-.25-3.56-.49-5.34-.74-14.23-2.71-28.55-3.72-43-2.24-11.57-.38-22.85,1.52-34.04,4.2Z"/>
      <path class="n" d="m203.78,164.08c11.19-2.68,22.47-4.58,34.04-4.2-.13,8.63,3.13,15.57,10.68,19.96,13.91,8.1,31.24-1.14,32.32-17.72,1.78.25,3.56.49,5.34.74,1.24,8.87,1.22,17.69-.99,26.43-14.67-1.63-29.36-2.77-44.14-2.68-12.09.08-23.74,2.05-34.88,6.8-3.59-9.55-3.25-19.42-2.36-29.34Z"/>
      <path class="g" d="m163.91,161.99c2.32.32,4.63.64,6.95.96.23,9.75,1.44,19.56-1.88,29.08-9.38-3.86-19.22-5.21-29.28-5.36-16.85-.26-33.6.85-50.27,3.29-2.38-8.59-1.42-17.32-1.15-26.02,10.8-2.13,21.54-4.77,32.7-4.09-.11,6.19,1.45,11.82,5.94,16.27,6.44,6.4,14.1,8.47,22.73,5.35,9-3.25,13.52-10.06,14.28-19.48Z"/>
      <path class="e" d="m155.07,131.16c1.9-1.9,4.63-1.57,6.91-2.53,5.53-2.32,9.4-6.15,11.86-11.45,1.21-2.62,2.45-5.15,5.8-3.69,3.26,1.42,2.58,4.26,1.5,6.86-2.5,6.07-6.74,10.58-12.58,13.54-1.34.68-2.75,1.18-3.75,2.37-3.25-1.7-6.49-3.4-9.74-5.09Z"/>
      <path class="e" d="m200.17,116.08c2.17,6.05,6.03,10.38,12.27,12.51,2.29.78,4.93.76,6.79,2.66-3.36,1.86-6.72,3.72-10.08,5.59-4.55-4.03-10.38-6.51-13.73-12.02-1.86-3.06-3.58-5.98-3.33-9.69,2.69.32,5.39.64,8.08.96Z"/>
      <path class="i" d="m296.28,140.54c2.42.4,4,1.67,3.79,4.27-.18,2.22-1.51,3.75-3.82,3.75-2.52,0-4.04-1.59-4.07-4.04-.04-2.52,1.56-3.84,4.1-3.98Z"/>
      <path class="i" d="m82.32,144.4c-.09,2.55-1.3,4.04-3.65,4.09-2.56.06-4.12-1.54-4.16-4.02-.05-2.63,1.79-3.93,4.24-3.88,2.37.05,3.44,1.7,3.57,3.8Z"/>
      <path class="l" d="m291.04,199.45c-.36,8.13-7.2,17.04-14.08,18.33,5.73-5.32,10.17-11.61,14.08-18.33Z"/>
      <path class="l" d="m277.02,217.71c-.11,2.58-1.8,3.16-3.96,3.14,1.04-1.4,2.39-2.42,3.96-3.14Z"/>
      <path class="o" d="m104.46,222.55c-1.54,1.17-2.47.39-3.2-1.01,1.35-.55,2.21.44,3.2,1.01Z"/>
      <path class="l" d="m273.12,220.82c-.64.36-1.28.72-1.93,1.08.64-.36,1.28-.72,1.93-1.08Z"/>
      <path class="l" d="m271.11,221.94c-.44.3-.88.61-1.32.91.44-.3.88-.61,1.32-.91Z"/>
      <path class="m" d="m163.91,161.99c-.76,9.42-5.28,16.23-14.28,19.48-8.62,3.12-16.29,1.04-22.73-5.35-4.48-4.45-6.05-10.08-5.94-16.27,14.41-1.29,28.71-.23,42.94,2.14Z"/>
      <path class="m" d="m280.81,162.12c-1.07,16.58-18.4,25.82-32.32,17.72-7.54-4.39-10.81-11.33-10.68-19.96,14.45-1.48,28.77-.47,43,2.24Z"/>
    </g>
  </g>
</svg>