<?xml version="1.0" encoding="UTF-8"?>
<svg id="b" data-name="Layer 2" xmlns="http://www.w3.org/2000/svg" width="435.89" height="742.39" viewBox="0 0 435.89 742.39">
  <defs>
    <style>
      .d {
        fill: #3f3f3f;
      }

      .d, .e, .f, .g, .h, .i, .j, .k, .l, .m, .n, .o, .p {
        stroke-width: 0px;
      }

      .e {
        fill: #88401f;
      }

      .f {
        fill: #9b9b9b;
      }

      .g {
        fill: #935438;
      }

      .h {
        fill: #494949;
      }

      .i {
        fill: #a46649;
      }

      .j {
        fill: #a36548;
      }

      .k {
        fill: #3d3d3d;
      }

      .l {
        fill: #424242;
      }

      .m {
        fill: #565656;
      }

      .n {
        fill: #fdfdfd;
      }

      .o {
        fill: #a36648;
      }

      .p {
        fill: #995b3e;
      }
    </style>
  </defs>
  <g id="c" data-name="Layer 1">
    <g>
      <path class="m" d="m317.92,742.39h-93.98c0-8.16.05-16.31-.02-24.47-.02-2.55.12-4.41,3.49-4.74,2.58-.25,5.6-1.45,5.19-4.87-.38-3.2-2.91-4.79-6.06-4.86-5.32-.12-10.65-.15-15.97.01-2.76.08-5.3.85-5.61,4.38-.31,3.4,1.56,5.16,4.52,5.37,3.39.23,3.52,2.15,3.49,4.71-.07,8.16-.02,16.31-.02,24.47h-94.98c-.02-30.82-.03-61.63-.11-92.45,0-1.73.89-3.67-.74-5.2.71-2.24.89-4.54.88-6.88-.04-10.32.1-20.63-.08-30.95-.06-3.51,1.15-4.62,4.61-4.57,11.48.17,22.96.07,34.44.07,0,9.32.08,18.63-.04,27.95-.04,3,.99,4.24,4.05,4.09,3.48-.17,7-.22,10.47.01,3.51.24,4.64-1.12,4.57-4.59-.18-9.15-.06-18.3-.05-27.45,28.32,0,56.64,0,84.96,0,0,9.32.09,18.63-.04,27.95-.04,3,1.01,4.23,4.05,4.08,3.48-.17,7-.22,10.47.01,3.52.24,4.64-1.13,4.57-4.6-.18-9.15-.06-18.3-.06-27.45,11.32,0,22.64.14,33.95-.09,3.93-.08,5.18,1.11,5.12,5.09-.2,13.48-.03,26.96,0,40.44-.2,29.54-.39,59.09-.62,88.63-.02,1.97.38,3.99-.46,5.9Z"/>
      <path class="o" d="m425.42,702.19c4.23,13.21,10.54,25.87,10.48,40.2h-85.98c-1.85-4.7-3.53-9.46-4.47-14.44.88-.46,1.72-1.05,2.65-1.35,19.57-6.33,39.14-12.66,58.74-18.9,6.16-1.96,12.39-3.68,18.59-5.5Z"/>
      <path class="o" d="m0,742.39c-.2-14.04,5.96-26.42,10.26-39.28,9.53,2.92,19.05,5.87,28.59,8.76,17.17,5.21,33.98,11.62,51.41,16.01-.66,5.07-2.66,9.73-4.28,14.52H0Z"/>
      <path class="h" d="m212.95,742.39c0-8.16-.05-16.31.02-24.47.02-2.55-.11-4.48-3.49-4.71-2.96-.2-4.83-1.97-4.52-5.37.32-3.54,2.85-4.3,5.61-4.38,5.32-.16,10.65-.13,15.97-.01,3.15.07,5.68,1.65,6.06,4.86.41,3.43-2.61,4.62-5.19,4.87-3.37.33-3.51,2.19-3.49,4.74.07,8.16.02,16.31.02,24.47h-11Z"/>
      <path class="l" d="m345.44,727.95c-8.14-25.06-16.27-50.11-24.43-75.16-.55-1.68-.6-3.59-2-4.92-.03-13.48-.19-26.96,0-40.44.06-3.98-1.2-5.17-5.12-5.09-11.31.23-22.63.08-33.95.09-6.33,0-12.67,0-19,0-28.32,0-56.64,0-84.96,0-6.33,0-12.67,0-19,0-11.48,0-22.96.1-34.44-.07-3.46-.05-4.67,1.05-4.61,4.57.18,10.31.04,20.63.08,30.95,0,2.35-.16,4.64-.88,6.88-8.58,27.83-17.27,55.63-26.86,83.13-17.43-4.39-34.23-10.8-51.41-16.01-9.54-2.89-19.06-5.84-28.59-8.76,26.72-83.2,52.67-166.65,80.62-249.43,8.39-24.87,28.98-39.19,55.72-42.51,3.9-.48,4.58-1.66,4.42-5.06-.27-5.48-.13-10.99-.17-16.48,45.12.01,90.25.02,135.37.03-.04,6-.01,11.99-.15,17.99-.05,2.29.71,3.05,3.08,3.34,29.83,3.69,49.1,20.08,58.27,48.63,25.97,80.87,51.99,161.72,77.99,242.57-6.2,1.83-12.43,3.54-18.59,5.5-19.6,6.24-39.17,12.58-58.74,18.9-.93.3-1.77.89-2.65,1.35Z"/>
      <path class="g" d="m286.22,389.66c-45.12-.01-90.25-.02-135.37-.03-9.33,0-18.66.07-27.98-.04-37.87-.45-67.66-30.33-67.86-68.14-.11-20.99-.02-41.98-.02-62.97,0-6.33,0-12.66.01-18.99,4.04-.24,8.03.12,11.98.99.38,1.26.75,2.52,1.13,3.79,2.73,9.14,6.52,17.53,16.19,21.32,9.2,3.6,18.83,4.92,28.67,4.88,3.31,10.28,3.59,20.21-3.2,29.43-2.33,3.17-5.67,5.08-8.63,7.47-2.57,2.07-4.32,4.34-2.07,7.58,2.16,3.12,4.92,3,7.79.97,6.32-4.47,11.82-9.67,15.28-16.76.83-1.7,1.23-3.76,4.26-2.57,13.18,5.21,26.99,7.85,40.91,10.35,16.13,2.9,32.42,3.01,48.57,3.1,13.13.07,26.45-.65,39.66-2.35,16.2-2.09,32.01-5.46,47.49-10.49,2.77-.9,3.92-1.28,5.55,1.93,3.93,7.76,10.55,13.11,18.2,17.09,2.67,1.39,5.78,1.87,7.52-1.16,1.7-2.97.56-5.81-2.24-7.82-1.35-.97-2.7-1.96-4.16-2.75-13.15-7.12-14.94-20.35-10.01-34.02,8.69-.71,17.36-1.19,25.71-4.29,6.85-2.54,11.38-7.09,14.12-13.63,1.52-3.64,2.79-7.38,4.18-11.08,6.66-1.18,13.33-1.78,19.99.01,0,5.64,0,11.29-.01,16.93,0,21.64.19,43.28-.03,64.92-.36,35.25-30.42,65.46-65.68,66.18-9.98.2-19.97.1-29.96.13Z"/>
      <path class="k" d="m53.92,191.5c.03-22.66.05-45.32.1-67.98.07-35.36,25.67-64.43,60.87-68.86,2.99-.38,3.74-2.06,4.78-4.16,12.28-24.98,31.49-41.6,58.73-48.43C184.22.6,190.17-.02,196.18,0c9.14.04,13.91,6.52,11.37,15.35-.53,1.85-1.89,3.53-1.32,6.1,8.96-3.74,18.05-6.64,27.49-8.29,26.86-4.69,52.31-.64,76.31,12.36,7.76,4.2,10.3,14.1,5.32,21.47-1.46,2.16-3.41,4-5.64,6.57,3.74.3,7.06.6,10.39.83,34.39,2.36,62.08,31.08,62.72,65.68.44,23.82.17,47.65.22,71.47-.81,5.61,1.17,11.41-1.15,16.91-4.33-.08-8.65-.17-12.98-.25.01-1.32.09-2.57.68-3.84,3.94-8.45,2.46-14.82-4.76-21,.01-10.32.14-20.64,0-30.96-.26-21.15-14.35-38.98-34.33-43.56-10.48-2.4-20.46-.93-30.81,2.22-16.65,5.06-33.85,8.02-51.1,10.75-25.64,4.06-50.88,2.55-76.27-1.85-17.39-3.01-34.16-8.61-51.43-11.75-28.15-5.13-53.1,15.72-53.02,42.85.03,10.15.02,20.31.02,30.46-10.12,3.34-13.81,15.53-8.45,23.79.61.94,1.01,2.02,1.51,3.03-2,.1-4.01.2-6.01.3-2.04-5.62-.33-11.46-1.04-17.16Z"/>
      <path class="i" d="m381.9,208.46c2.32-5.51.34-11.31,1.15-16.91,4.79.22,9.5-.93,14.39-.08,15.97,2.79,28.21,16.88,28.45,33.27.24,16.26-11.78,30.62-27.68,33.9-5.61,1.16-10.89-.32-16.33-.2,0-5.65,0-11.29.01-16.94,0-11.01,0-22.02,0-33.03Z"/>
      <path class="i" d="m53.92,191.5c.71,5.7-1,11.54,1.04,17.16.01,10.28.03,20.56.04,30.84,0,6.33,0,12.66-.01,18.99-4.94-.16-9.77,1.04-14.83.06-15.92-3.08-28.06-17.3-28.09-33.54-.03-16.22,12.1-30.56,28.01-33.56,4.7-.89,9.23-.38,13.84.05Z"/>
      <path class="h" d="m156.97,602.42c6.33,0,12.67,0,19,0,0,9.15-.13,18.3.05,27.45.07,3.47-1.06,4.83-4.57,4.59-3.48-.24-6.99-.19-10.47-.01-3.05.15-4.09-1.09-4.05-4.09.12-9.31.04-18.63.04-27.95Z"/>
      <path class="h" d="m260.93,602.42c6.33,0,12.67,0,19,0,0,9.15-.13,18.3.06,27.45.07,3.46-1.05,4.83-4.57,4.6-3.48-.24-6.99-.19-10.47-.01-3.05.15-4.09-1.08-4.05-4.08.12-9.31.04-18.63.04-27.95Z"/>
      <path class="e" d="m317.89,270.48c-4.92,13.67-3.14,26.9,10.01,34.02,1.46.79,2.81,1.78,4.16,2.75,2.8,2.01,3.94,4.86,2.24,7.82-1.74,3.03-4.85,2.55-7.52,1.16-7.65-3.98-14.27-9.33-18.2-17.09-1.63-3.22-2.79-2.83-5.55-1.93-15.48,5.02-31.29,8.4-47.49,10.49-13.21,1.71-26.53,2.43-39.66,2.35-16.15-.09-32.44-.21-48.57-3.1-13.92-2.5-27.73-5.13-40.91-10.35-3.03-1.2-3.43.87-4.26,2.57-3.46,7.09-8.96,12.3-15.28,16.76-2.87,2.03-5.63,2.15-7.79-.97-2.25-3.25-.5-5.52,2.07-7.58,2.96-2.38,6.3-4.3,8.63-7.47,6.79-9.22,6.51-19.14,3.2-29.43-.33-1.28-.65-2.56-.98-3.84,3.66.28,7.33.55,10.99.83.34,1,.67,2,1.01,3,.34,2.29.65,4.58,1.02,6.86.4,2.49.87,4.93,3.65,6.03,4.01,1.58,7.9,3.56,12.01,4.8,22.07,6.65,44.85,8.48,67.72,9.24,12.43.42,24.82-.93,37.21-1.87,15.73-1.19,31.03-4.29,46.28-8.29,9.35-2.46,15-6.7,14.99-16.78.07-1.01.15-2.02.22-3.02,3.61-.27,7.21-.54,10.82-.8-.01,1.29-.02,2.57-.04,3.86Z"/>
      <path class="j" d="m317.89,270.48c.01-1.29.02-2.57.04-3.86,16.13-2.58,25.19-14.08,27.79-25.63,1.8-8.02,2.34-16.33,3.22-24.54.31-2.89,1.41-4.27,4.35-3.97,4.09.42,7.85-.8,11.56-2.31-.04,2.79.02,5.55-.37,8.36-1.06,7.62-1.74,15.3-2.57,22.95-1.38,3.7-2.65,7.44-4.18,11.08-2.74,6.54-7.27,11.09-14.12,13.63-8.35,3.1-17.03,3.58-25.71,4.29Z"/>
      <path class="j" d="m111.99,266.64c.33,1.28.65,2.56.98,3.84-9.84.03-19.47-1.29-28.67-4.88-9.67-3.79-13.46-12.18-16.19-21.32-.38-1.26-.75-2.52-1.13-3.79-.05-2.13-.19-4.23-.54-6.36-1.3-7.92-2.52-15.87-2.36-23.94,3.72,1.52,7.51,2.71,11.61,2.29,2.85-.29,3.84,1.35,4.14,3.79.7,5.76,1.88,11.5,2,17.27.31,15.59,12.51,31.05,30.17,33.1Z"/>
      <path class="p" d="m361.9,241.48c.83-7.65,1.51-15.33,2.57-22.95.39-2.81.33-5.57.37-8.36.9-1.61,2.52-1.71,4.07-1.96,4.33.08,8.65.17,12.98.25,0,11.01,0,22.02,0,33.03-6.66-1.8-13.33-1.2-19.99-.01Z"/>
      <path class="p" d="m64.09,210.19c-.16,8.07,1.07,16.02,2.36,23.94.35,2.14.49,4.23.54,6.36-3.95-.88-7.94-1.23-11.98-.99-.01-10.28-.03-20.56-.04-30.84,2-.1,4.01-.2,6.01-.3,1.29.18,2.71.14,3.11,1.83Z"/>
      <path class="j" d="m67.92,181.53c0-10.15,0-20.31-.02-30.46-.08-27.13,24.87-47.98,53.02-42.85,17.27,3.15,34.04,8.74,51.43,11.75,25.38,4.39,50.63,5.91,76.27,1.85,17.25-2.73,34.45-5.69,51.1-10.75,10.35-3.15,20.33-4.62,30.81-2.22,19.98,4.58,34.06,22.41,34.33,43.56.13,10.32,0,20.64,0,30.96-3.92-2.06-8.23-2.73-12.53-2.74-32.61-.07-65.22-.19-97.83.06-17.97.14-29.4,8.75-32.59,24.75-1.13,5.65-3.64,6.65-8.57,6.32-3.36-.22-5-.48-5.72-4.66-2.18-12.62-9.37-21.55-22.15-24.86-4.44-1.15-9.18-1.51-13.79-1.55-19.3-.17-38.6-.22-57.9-.03-15.28.15-30.59-1.09-45.83.87Z"/>
      <path class="d" d="m67.92,181.53c15.24-1.96,30.55-.72,45.83-.87,19.3-.19,38.6-.14,57.9.03,4.61.04,9.36.4,13.79,1.55,12.77,3.31,19.97,12.24,22.15,24.86.72,4.18,2.36,4.44,5.72,4.66,4.93.32,7.45-.67,8.57-6.32,3.2-16,14.63-24.61,32.59-24.75,32.61-.25,65.22-.13,97.83-.06,4.3,0,8.61.68,12.53,2.74,7.22,6.18,8.7,12.55,4.76,21-.59,1.28-.67,2.53-.68,3.84-1.55.25-3.17.35-4.07,1.96-3.71,1.51-7.47,2.73-11.56,2.31-2.94-.3-4.04,1.08-4.35,3.97-.88,8.21-1.42,16.52-3.22,24.54-2.6,11.55-11.66,23.05-27.79,25.63-3.61.27-7.21.54-10.82.81-14.98-.02-29.95.05-44.92-.09-20.42-.19-33.61-11.25-37.21-31.06-.28-1.56-.71-2.75-2.07-3.73-7.51-5.4-17.86-1.92-19.79,6.95-2.13,9.79-7.23,17.39-15.7,22.68-6.88,4.3-14.67,5.04-22.49,5.14-13.97.19-27.95.12-41.92.15-3.66-.28-7.33-.55-10.99-.83-17.66-2.05-29.86-17.51-30.17-33.1-.11-5.77-1.3-11.51-2-17.27-.3-2.44-1.29-4.08-4.14-3.79-4.09.42-7.89-.77-11.61-2.29-.4-1.69-1.82-1.65-3.11-1.83-.5-1.01-.9-2.09-1.51-3.03-5.37-8.26-1.67-20.45,8.45-23.79Zm224.36,9.82c3.99,11.38,3.04,22.91,2,34.28-1.01,11.02-10.65,19.29-21.64,19.83-11.26.56-21.2-7.02-23.78-18.04-.97-4.12-.49-8.29-.83-12.42-.31-3.82.36-5.43,4.89-5.39,8.56.08,15.77-7.19,16.36-15.22.18-2.4-.45-3.32-2.92-3.25-5.32.16-10.67-.09-15.98.21-11.98.68-20.73,10.82-19.16,22.69,1.11,8.38,2.77,16.72,4.74,24.95,2.39,10.01,11.25,17.33,21.66,17.51,18.81.33,37.63.42,56.44.04,11.24-.22,19.87-7.78,21.92-18.9,1.75-9.47,2.9-19.08,3.68-28.68.73-8.97-6.04-17.06-14.88-17.5-10.78-.53-21.6-.13-32.5-.13Zm-158.1,18.62c11.64.51,19.99-5.57,20.91-14.93.25-2.57,0-3.96-3.2-3.93-15.15.15-30.31-.11-45.46.13-11.2.18-18.44,8.76-17.2,19.85.87,7.77,1.82,15.52,2.87,23.27,1.84,13.6,10.68,22.06,24.31,22.31,18.14.33,36.3.27,54.44-.09,11.25-.22,19.72-7.63,22.19-18.65,1.71-7.61,3.1-15.3,4.51-22.98.91-4.95-.24-9.61-2.71-13.9-3.64-6.33-10.67-10.07-16.56-9,3.8,10.84,2.86,22.07,1.91,33.1-1.07,12.4-11.32,20.74-23.54,20.49-11.82-.24-21.24-9.02-22.4-21.28-.44-4.61-.07-9.3-.07-14.39Zm-55.14-13.32c-.34-3.51-2.09-5.74-5.58-6.02-3.38-.27-6.79,3.06-6.39,6.24.42,3.3,2.23,5.66,5.87,5.62,3.74-.05,5.75-2.18,6.1-5.84Zm277.21,5.96c3.36-.49,5.68-2.44,5.55-6.11-.13-3.61-2.56-5.79-6.1-5.82-3.73-.03-5.76,2.49-5.74,6.06.02,3.7,2.44,5.52,6.29,5.88Z"/>
      <path class="g" d="m306.88,270.45c0,10.08-5.64,14.33-14.99,16.78-15.26,4.01-30.56,7.1-46.28,8.29-12.39.94-24.79,2.28-37.21,1.87-22.87-.77-45.65-2.59-67.72-9.24-4.11-1.24-8-3.22-12.01-4.8-2.78-1.1-3.25-3.54-3.65-6.03-.37-2.28-.68-4.57-1.02-6.86,24.65,0,49.3,0,73.95.01-1.37,7.97.91,14.39,8.07,18.66,5.84,3.48,11.63,3.34,17.35-.31,6.8-4.35,9.13-10.55,7.59-18.35l75.93-.02Z"/>
      <path class="j" d="m197.95,270.48c-24.65,0-49.3,0-73.95-.01-.34-1-.67-2-1.01-3,13.98-.04,27.95.04,41.92-.15,7.82-.11,15.61-.84,22.49-5.14,8.47-5.29,13.57-12.89,15.7-22.68,1.93-8.87,12.28-12.35,19.79-6.95,1.36.98,1.79,2.17,2.07,3.73,3.61,19.82,16.8,30.87,37.21,31.06,14.97.14,29.95.07,44.92.09-.07,1.01-.15,2.02-.22,3.02-25.31,0-50.62.01-75.93.02-3.36-8.93-8.36-16.92-13.97-24.6-1.94-2.66-3.13-2.69-5.07.02-5.51,7.72-10.69,15.61-13.98,24.58Z"/>
      <path class="n" d="m292.28,191.35c10.9,0,21.72-.41,32.5.13,8.85.44,15.62,8.53,14.88,17.5-.79,9.6-1.94,19.21-3.68,28.68-2.05,11.11-10.68,18.67-21.92,18.9-18.81.37-37.63.29-56.44-.04-10.41-.18-19.27-7.5-21.66-17.51-1.97-8.23-3.63-16.57-4.74-24.95-1.57-11.87,7.18-22.01,19.16-22.69,5.31-.3,10.65-.05,15.98-.21,2.47-.07,3.1.85,2.92,3.25-.59,8.02-7.79,15.3-16.36,15.22-4.53-.04-5.2,1.57-4.89,5.39.33,4.13-.14,8.31.83,12.42,2.58,11.02,12.52,18.59,23.78,18.04,10.99-.54,20.63-8.81,21.64-19.83,1.04-11.37,1.99-22.9-2-34.28Z"/>
      <path class="n" d="m134.18,209.97c0,5.1-.37,9.79.07,14.39,1.16,12.26,10.59,21.04,22.4,21.28,12.22.25,22.47-8.08,23.54-20.49.95-11.02,1.89-22.25-1.91-33.1,5.89-1.07,12.92,2.67,16.56,9,2.47,4.29,3.62,8.95,2.71,13.9-1.41,7.68-2.81,15.36-4.51,22.98-2.47,11.02-10.94,18.43-22.19,18.65-18.14.36-36.3.42-54.44.09-13.62-.25-22.46-8.71-24.31-22.31-1.05-7.74-2-15.5-2.87-23.27-1.24-11.09,6-19.67,17.2-19.85,15.15-.25,30.31.02,45.46-.13,3.21-.03,3.46,1.36,3.2,3.93-.92,9.36-9.27,15.43-20.91,14.93Z"/>
      <path class="f" d="m79.03,196.65c-.35,3.66-2.36,5.79-6.1,5.84-3.64.05-5.45-2.32-5.87-5.62-.4-3.18,3.01-6.51,6.39-6.24,3.5.28,5.25,2.51,5.58,6.02Z"/>
      <path class="f" d="m356.24,202.61c-3.85-.36-6.27-2.17-6.29-5.88-.02-3.57,2.01-6.09,5.74-6.06,3.54.03,5.97,2.21,6.1,5.82.13,3.67-2.19,5.62-5.55,6.11Z"/>
      <path class="e" d="m197.95,270.48c3.29-8.98,8.47-16.86,13.98-24.58,1.93-2.71,3.12-2.68,5.07-.02,5.61,7.67,10.6,15.66,13.97,24.6,1.54,7.8-.79,14-7.59,18.35-5.72,3.66-11.51,3.8-17.35.31-7.16-4.28-9.43-10.69-8.07-18.66Z"/>
    </g>
  </g>
</svg>